<?xml version="1.0" encoding="UTF-8" standalone="no"?>
<!-- Created with Inkscape (http://www.inkscape.org/) -->

<svg
   version="1.1"
   id="svg1"
   width="2419.0054"
   height="813.94946"
   viewBox="0 0 2419.0054 813.94946"
   sodipodi:docname="signalroi.svg"
   inkscape:version="1.3.2 (091e20e, 2023-11-25)"
   xmlns:inkscape="http://www.inkscape.org/namespaces/inkscape"
   xmlns:sodipodi="http://sodipodi.sourceforge.net/DTD/sodipodi-0.dtd"
   xmlns="http://www.w3.org/2000/svg"
   xmlns:svg="http://www.w3.org/2000/svg">
  <defs
     id="defs1" />
  <sodipodi:namedview
     id="namedview1"
     pagecolor="#ffffff"
     bordercolor="#000000"
     borderopacity="0.25"
     inkscape:showpageshadow="2"
     inkscape:pageopacity="0.0"
     inkscape:pagecheckerboard="0"
     inkscape:deskcolor="#d1d1d1"
     showgrid="false"
     inkscape:zoom="0.1882508"
     inkscape:cx="1147.4055"
     inkscape:cy="382.46849"
     inkscape:window-width="1368"
     inkscape:window-height="747"
     inkscape:window-x="72"
     inkscape:window-y="56"
     inkscape:window-maximized="0"
     inkscape:current-layer="g1" />
  <g
     inkscape:groupmode="layer"
     inkscape:label="Image"
     id="g1"
     transform="translate(-149,-371.05054)">
    <path
       style="fill:#1a1a1a;fill-opacity:1"
       d="m 670,1183.5 c -0.68469,-0.825 -2.28265,-1.5 -3.55102,-1.5 -1.26837,0 -2.92175,-0.6156 -3.67419,-1.3681 -0.75244,-0.7524 -2.42222,-1.7026 -3.71062,-2.1115 -6.48385,-2.0579 -19.4685,-19.4597 -21.65413,-29.0204 -0.3772,-1.65 -1.18627,-3.6324 -1.79793,-4.4054 -1.49526,-1.8895 -1.45314,-42.3515 0.0461,-44.2445 0.58808,-0.7425 1.3643,-3.9785 1.72494,-7.1909 0.36064,-3.2125 1.32197,-6.5071 2.13629,-7.3215 0.81433,-0.8143 1.48059,-2.7719 1.48059,-4.3501 0,-1.5783 0.41084,-3.1235 0.91299,-3.4338 0.50214,-0.3104 1.21232,-2.336 1.57817,-4.5015 0.36585,-2.1654 1.30501,-4.4682 2.08701,-5.1172 0.78201,-0.649 1.42183,-2.1948 1.42183,-3.4351 0,-1.2403 0.66309,-2.8054 1.47354,-3.478 0.81044,-0.6726 1.75752,-2.7367 2.1046,-4.5869 0.34709,-1.8501 1.259,-3.885 2.02647,-4.5219 0.76746,-0.637 1.39539,-1.7229 1.39539,-2.4132 0,-0.6903 0.675,-1.8153 1.5,-2.5 0.825,-0.6847 1.5,-2.0576 1.5,-3.051 0,-0.9934 0.5815,-2.4008 1.29223,-3.1276 0.71073,-0.7268 1.89032,-2.7839 2.62132,-4.5714 0.731,-1.7875 1.7245,-3.25 2.20777,-3.25 0.48327,0 0.88869,-0.5625 0.90092,-1.25 0.0122,-0.6875 0.90222,-2.375 1.97776,-3.75 1.07554,-1.375 1.96553,-3.2875 1.97776,-4.25 0.0122,-0.9625 0.69724,-1.75 1.52224,-1.75 0.825,0 1.5,-0.8776 1.5,-1.9503 0,-1.0727 0.61728,-2.3102 1.37173,-2.75 0.75446,-0.4398 3.06598,-3.4997 5.13673,-6.7997 2.07074,-3.3 6.40346,-9.2248 9.62826,-13.16626 3.22481,-3.94145 5.86328,-7.61645 5.86328,-8.16667 0,-0.55022 0.35731,-1.1504 0.79402,-1.33374 0.43671,-0.18333 8.7261,-9.10833 18.42087,-19.83333 9.69478,-10.725 19.8394,-21.525 22.54362,-24 2.70422,-2.475 10.27732,-9.47779 16.82912,-15.56176 16.44624,-15.27188 19.35404,-17.81848 31.91237,-27.94832 6.05,-4.88007 12.68814,-10.24919 14.75142,-11.93139 2.6997,-2.20105 3.92704,-4.10986 4.37781,-6.80853 0.34451,-2.0625 1.01887,-3.75 1.49858,-3.75 0.4797,0 0.87219,-1.81445 0.87219,-4.03212 0,-2.21766 0.675,-5.64762 1.5,-7.62212 0.825,-1.97451 1.5,-5.27995 1.5,-7.34544 0,-2.11821 0.65394,-4.29815 1.5,-5.00032 0.95357,-0.79139 1.5,-3.00023 1.5,-6.06343 0,-2.65019 0.40784,-5.0706 0.90632,-5.37867 0.49847,-0.30807 1.2157,-2.80963 1.59383,-5.55902 C 813.87829,835.2495 814.59545,833 815.09384,833 815.59223,833 816,831.25658 816,829.12573 c 0,-2.13085 0.675,-5.78743 1.5,-8.12573 3.41113,-9.66817 0.59983,-8.70767 -4.43247,1.5144 C 811.31146,826.08148 809.45287,829 808.93734,829 808.4218,829 808,829.58529 808,830.30064 c 0,1.81864 -2.34736,6.68212 -3.22968,6.69156 -0.40132,0.004 -1.62679,1.76629 -2.72326,3.91555 -1.09647,2.14927 -2.34312,4.06177 -2.77032,4.25 -1.36196,0.60011 -5.27674,6.70529 -5.27674,8.22918 0,0.80735 -1.125,2.35283 -2.5,3.43441 -1.375,1.08158 -2.5,2.28698 -2.5,2.67868 0,1.5675 -8.5677,11.55761 -19.58735,22.83923 C 760.80561,891.15093 750.11004,900 748.06672,900 747.48002,900 747,900.43194 747,900.95986 c 0,0.52792 -1.8,1.49915 -4,2.15829 -2.2,0.65913 -4,1.5772 -4,2.04014 0,0.46294 -1.48899,0.84171 -3.30887,0.84171 -1.81988,0 -4.18238,0.66069 -5.25,1.4682 -2.85204,2.15717 -28.65485,2.18413 -30.44113,0.0318 -0.68469,-0.825 -2.30093,-1.5 -3.59165,-1.5 -6.48633,0 -22.07926,-13.48655 -27.40835,-23.70587 -1.375,-2.63677 -2.8375,-4.94413 -3.25,-5.12746 -0.4125,-0.18334 -0.75,-1.59074 -0.75,-3.12756 0,-1.53682 -0.675,-3.35442 -1.5,-4.03911 -0.8953,-0.74303 -1.5,-2.92901 -1.5,-5.42244 0,-2.29766 -0.49403,-4.67159 -1.09784,-5.2754 -0.60382,-0.60382 -1.20573,-2.83132 -1.33759,-4.95 -0.4417,-7.09709 -0.50752,-7.31128 -2.06317,-6.71432 -0.82424,0.31629 -3.83876,3.56466 -6.69895,7.21861 C 644.97346,862.30312 619.04893,889 617.64669,889 c -0.49736,0 -2.64763,1.575 -4.77837,3.5 -2.13074,1.925 -4.39281,3.5 -5.02681,3.5 -0.634,0 -2.62768,1.125 -4.4304,2.5 -1.80272,1.375 -3.98269,2.5 -4.84439,2.5 -0.8617,0 -1.56672,0.44143 -1.56672,0.98095 0,0.53952 -1.20751,1.28401 -2.68335,1.65442 -1.47584,0.37042 -3.83834,1.27622 -5.25,2.01289 -1.41166,0.73668 -3.48915,1.34219 -4.61665,1.34558 -1.1275,0.003 -2.57172,0.52788 -3.20937,1.16553 -1.85725,1.85725 -28.41719,1.2661 -29.85087,-0.66439 C 550.77912,906.67274 548.92172,906 547.2622,906 545.60268,906 543.68469,905.325 543,904.5 542.31531,903.675 541.22196,903 540.57033,903 536.25953,903 522,884.00111 522,878.25756 c 0,-1.02166 -0.50649,-2.36405 -1.12554,-2.9831 -4.2904,-4.2904 -4.23067,-60.30719 0.086,-80.69034 0.57259,-2.70373 0.88507,-5.07188 0.6944,-5.26255 -0.61463,-0.61463 -15.89485,5.66021 -24.9243,10.2352 C 491.90739,802.00055 487.35,804 486.60301,804 c -0.74699,0 -1.89435,0.64607 -2.5497,1.43572 -0.65535,0.78965 -2.58843,1.74253 -4.29573,2.11751 -1.70729,0.37499 -6.32075,2.31642 -10.25213,4.31428 -3.93137,1.99787 -8.69089,4.2558 -10.57672,5.01762 -1.88582,0.76181 -6.27267,2.67431 -9.74854,4.25 -3.47587,1.57568 -6.70586,2.86487 -7.17775,2.86487 -0.95577,0 -0.47941,7.86831 1.12002,18.5 1.54677,10.28161 1.6238,46.53346 0.11793,55.5 -2.21502,13.18913 -3.04696,17.40833 -4.23936,21.5 -0.64113,2.2 -1.41019,5.35 -1.70901,7 -0.29883,1.65 -0.88605,3.45 -1.30494,4 -0.41888,0.55 -1.95378,4.00138 -3.41088,7.66974 -1.4571,3.66836 -3.70292,8.61836 -4.99069,11 -1.28778,2.38164 -3.36313,6.21146 -4.61188,8.51069 -7.01011,12.90724 -30.02556,38.15903 -40.29268,44.20777 -2.29954,1.3548 -4.40599,2.7216 -4.68099,3.0375 -0.87053,0.9999 -6.89373,5.0743 -7.50132,5.0743 -0.32027,0 -1.54834,0.9 -2.72905,2 -1.18072,1.1 -2.93534,2 -3.89917,2 -0.96384,0 -2.03054,0.45 -2.37046,1 -0.33992,0.55 -1.49148,1 -2.55902,1 -1.06754,0 -1.94098,0.3687 -1.94098,0.8192 0,0.4506 -2.25,1.432 -5,2.1808 -2.75,0.7488 -5,1.7302 -5,2.1808 0,0.4505 -0.7875,0.822 -1.75,0.8254 -0.9625,0 -3.03894,0.6783 -4.61431,1.5 -1.57537,0.8216 -4.13631,1.4938 -5.69098,1.4938 -1.55467,0 -3.10479,0.45 -3.44471,1 -0.33992,0.55 -2.28195,1 -4.31562,1 -2.03367,0 -5.26961,0.4512 -7.19098,1.0027 -13.79003,3.9581 -42.6281,2.8468 -57.4934,-2.2155 -5.78461,-1.97 -16.44069,-6.7174 -17.5,-7.7966 -0.275,-0.2801 -2.43125,-1.7614 -4.79167,-3.2917 -6.60881,-4.2847 -14.71007,-12.9907 -19.02719,-20.44751 C 216.53676,986.2293 213,977.05148 213,973.0215 c 0,-1.5969 -0.45,-3.18158 -1,-3.5215 -2.55401,-1.57846 -0.42423,-25.68875 3.18005,-36 0.57675,-1.65 1.27114,-4.22302 1.54308,-5.71783 0.27193,-1.49481 1.12048,-3.23741 1.88565,-3.87245 C 219.37395,923.27469 220,922.28642 220,921.71357 220,920.03014 223.31838,913 224.11299,913 c 0.40046,0 1.02348,-1.34484 1.38449,-2.98853 0.36102,-1.6437 1.08515,-3.25352 1.60919,-3.5774 0.52404,-0.32387 3.06395,-3.79338 5.64424,-7.71001 4.77588,-7.24934 32.36841,-35.92292 39.74909,-41.30644 2.2,-1.60469 5.35,-4.15403 7,-5.6652 1.65,-1.51117 4.37375,-3.40266 6.05277,-4.20333 1.67903,-0.80066 3.84906,-2.33563 4.8223,-3.41104 0.97323,-1.07542 3.08699,-2.50101 4.69722,-3.168 1.61024,-0.66698 2.92771,-1.55561 2.92771,-1.97474 0,-0.41913 0.7875,-1.04672 1.75,-1.39466 2.62843,-0.95016 6.05951,-3.08402 8.53749,-5.30965 1.21688,-1.09296 6.26251,-4.3886 11.21251,-7.32364 4.95,-2.93504 9.225,-5.64438 9.5,-6.02075 0.275,-0.37638 2.75,-1.82083 5.5,-3.2099 2.75,-1.38908 7.40772,-4.14809 10.35049,-6.13115 2.94277,-1.98306 5.82823,-3.60556 6.41214,-3.60556 0.58391,0 3.03418,-1.15598 5.44505,-2.56884 5.01495,-2.93895 5.0151,-3.14022 0.01,-12.93116 -1.687,-3.3 -3.75734,-7.4625 -4.60075,-9.25 C 351.27337,779.4625 350.22706,778 349.79165,778 349.35624,778 349,777.31687 349,776.48193 c 0,-0.83494 -1.8,-4.48093 -4,-8.1022 -2.2,-3.62128 -4,-7.21315 -4,-7.98193 0,-0.76879 -0.3375,-1.40161 -0.75,-1.40627 -0.4125,-0.005 -2.55,-3.49217 -4.75,-7.75 -2.2,-4.25784 -4.3375,-7.89153 -4.75,-8.07486 C 330.3375,742.98333 330,742.00833 330,741 c 0,-1.00833 -0.37462,-1.98333 -0.8325,-2.16667 C 328.26855,738.47339 323,727.3619 323,725.82594 c 0,-0.51281 -2.025,-4.03448 -4.5,-7.82594 -2.475,-3.79146 -4.5,-7.53741 -4.5,-8.32434 0,-0.78692 -0.675,-1.99097 -1.5,-2.67566 -0.825,-0.68469 -1.5,-1.8709 -1.5,-2.63601 0,-1.27353 -0.91293,-3.39979 -3.16179,-7.36399 -0.46802,-0.825 -1.12125,-2.175 -1.45164,-3 -0.33038,-0.825 -1.1828,-2.85 -1.89427,-4.5 -0.71146,-1.65 -1.97924,-5.025 -2.81729,-7.5 -0.83804,-2.475 -2.32362,-6.3 -3.30128,-8.5 -1.55862,-3.5073 -1.82384,-3.71532 -2.15322,-1.68885 -0.2066,1.27113 -1.01573,2.55678 -1.79807,2.85699 -0.78234,0.30021 -1.42244,1.18164 -1.42244,1.95872 0,0.77709 -1.18186,3.28507 -2.62636,5.5733 -1.44449,2.28823 -3.27542,5.54179 -4.06872,7.23013 -0.79329,1.68834 -2.52575,4.86971 -3.84989,7.06971 -1.32415,2.2 -2.8991,5.123 -3.4999,6.49557 -0.60079,1.37256 -2.18648,3.93003 -3.52374,5.68327 -1.33727,1.75325 -2.43139,3.61264 -2.43139,4.13199 0,0.51936 -0.56378,1.41218 -1.25285,1.98406 -0.68907,0.57187 -2.77217,4.00197 -4.6291,7.62244 C 265.26111,726.0378 263.34989,729 262.8709,729 c -0.479,0 -0.8709,0.53201 -0.8709,1.18225 0,0.65024 -3.375,6.20759 -7.5,12.34966 -4.125,6.14207 -7.50055,11.57256 -7.50122,12.06775 -6.7e-4,0.49519 -1.17268,2.25034 -2.60446,3.90034 -1.43179,1.65 -3.02231,3.9 -3.53451,5 -0.51219,1.1 -2.47574,4.475 -4.36344,7.5 -1.88771,3.025 -4.00913,6.60804 -4.71428,7.96231 -0.70515,1.35427 -2.29459,3.55748 -3.53209,4.89602 -1.2375,1.33855 -2.25,3.00551 -2.25,3.70436 0,0.69885 -0.38047,1.42064 -0.84548,1.60398 C 224.16943,789.55504 217,799.42506 217,800.39284 c 0,0.35968 -2.3625,4.11524 -5.25,8.34568 C 205.20521,818.32719 192.17592,832 189.58333,832 c -1.05922,0 -2.68965,0.69123 -3.62318,1.53607 -2.40727,2.17854 -14.47234,2.21537 -16.86342,0.0515 C 168.13191,832.71439 166.34993,832 165.13678,832 c -1.39655,0 -4.76111,-2.55536 -9.17126,-6.96552 L 149,818.06897 l 0.002,-9.28449 0.002,-9.28448 4.49799,-6.84295 c 2.4739,-3.76362 4.49799,-7.01199 4.49799,-7.2186 0,-0.47618 8.29859,-12.76659 9.07375,-13.43845 0.31728,-0.275 1.44298,-2.075 2.50156,-4 1.05858,-1.925 2.95823,-4.79703 4.22144,-6.38228 1.26321,-1.58526 4.09487,-6.15856 6.29258,-10.1629 2.19771,-4.00433 4.65167,-7.82491 5.45325,-8.49016 0.80158,-0.66525 1.45742,-1.63447 1.45742,-2.15383 0,-0.51935 1.11108,-2.40097 2.46906,-4.18138 1.35798,-1.78041 3.16402,-4.90038 4.01342,-6.93328 0.8494,-2.03289 1.97918,-3.69617 2.51062,-3.69617 0.53144,0 1.91682,-1.86327 3.07863,-4.1406 2.03334,-3.98568 14.83009,-24.08588 16.91394,-26.56719 0.55788,-0.66429 1.01433,-1.58891 1.01433,-2.05472 0,-0.46581 2.025,-3.72268 4.5,-7.23749 2.475,-3.51481 4.5,-6.92259 4.5,-7.57284 0,-0.65025 0.63355,-1.70807 1.40789,-2.35071 0.77433,-0.64264 2.12943,-2.61024 3.01132,-4.37245 0.88189,-1.7622 2.72028,-5.004 4.08532,-7.204 1.36503,-2.2 2.79509,-4.675 3.17791,-5.5 0.38281,-0.825 3.08587,-5.45332 6.00679,-10.28516 C 246.61015,643.883 249,639.65048 249,639.30923 c 0,-0.34125 1.125,-2.0954 2.5,-3.89812 1.375,-1.80272 2.5,-3.98269 2.5,-4.84439 0,-0.8617 0.39459,-1.56672 0.87686,-1.56672 0.48227,0 1.84196,-2.1375 3.02153,-4.75 1.17958,-2.6125 2.52319,-5.425 2.9858,-6.25 0.94546,-1.68608 5.6153,-11.69387 6.53269,-14 0.32819,-0.825 1.69913,-3.3 3.04654,-5.5 1.34741,-2.2 2.46935,-4.7875 2.49321,-5.75 C 272.98048,591.7875 273.45,591 274,591 c 0.55,0 1,-1.09286 1,-2.42857 0,-1.33572 0.675,-3.10357 1.5,-3.92857 0.825,-0.825 1.5,-2.63059 1.5,-4.01241 0,-1.38183 0.39899,-2.759 0.88664,-3.06039 0.48765,-0.30138 1.20292,-2.24044 1.58948,-4.30901 0.38657,-2.06858 1.02794,-4.21105 1.42527,-4.76105 0.39734,-0.55 1.30974,-3.475 2.02757,-6.5 1.35275,-5.70063 2.62694,-9.07933 7.91962,-21 1.93236,-4.35224 5.58994,-10.4796 9.52553,-15.95765 C 305.63041,519.11789 316.91991,507 318.18307,507 c 0.44931,0 1.68468,-0.7875 2.74525,-1.75 3.55996,-3.23075 5.00616,-4.27395 7.29519,-5.26229 1.25207,-0.54061 2.95149,-1.36407 3.77649,-1.8299 4.43384,-2.50352 6.57265,-3.31601 12.25801,-4.6565 10.67197,-2.51625 17.52006,-1.99743 27.35112,2.07214 4.7479,1.9654 9.14067,3.99577 9.76171,4.51194 0.62104,0.51617 2.86956,2.27598 4.99672,3.9107 4.4698,3.43503 6.82611,7.42241 9.1886,15.5491 1.7518,6.02597 1.47493,14.82372 -0.52958,16.82823 -0.56462,0.56462 -1.02658,2.26002 -1.02658,3.76756 0,1.50754 -0.45118,3.01983 -1.00263,3.36065 -0.55145,0.34081 -1.87918,2.54378 -2.9505,4.89549 -1.07133,2.3517 -2.64514,4.85451 -3.49737,5.5618 -0.85222,0.70728 -1.5495,1.88351 -1.5495,2.61383 0,0.73033 -0.5625,1.68773 -1.25,2.12756 -1.3828,0.88465 -5.75,6.85049 -5.75,7.85483 0,0.34986 -1.01187,2.05559 -2.24859,3.79049 C 372.7901,574.49982 365,589.79445 365,591.45432 c 0,0.71544 -0.675,1.86099 -1.5,2.54568 -0.825,0.68469 -1.5,2.44979 -1.5,3.92244 0,1.47266 -0.40852,3.10506 -0.90781,3.62756 -2.08973,2.18683 -3.02003,23.83207 -1.63109,37.95 0.62545,6.35732 1.96411,10.94947 4.58734,15.73643 0.52336,0.95504 0.95156,2.39373 0.95156,3.19709 0,0.80336 1.125,3.57649 2.5,6.1625 1.375,2.58602 2.5,5.48669 2.5,6.44593 0,0.95924 0.675,2.00309 1.5,2.31968 0.825,0.31658 1.5,1.46282 1.5,2.54719 0,1.08438 1.35,4.57359 3,7.75381 1.65,3.18022 3,6.35713 3,7.0598 0,0.70266 0.45,1.27757 1,1.27757 0.55,0 1,0.60526 1,1.34501 0,0.73976 0.9,2.1595 2,3.15499 1.1,0.99549 2.03289,2.52773 2.07309,3.40499 0.0402,0.87725 0.93524,2.94501 1.98899,4.59501 1.05374,1.65 2.21425,3.675 2.57891,4.5 0.36465,0.825 1.21193,2.175 1.88282,3 1.37158,1.68662 5.25244,8.65276 11.42062,20.5 2.29083,4.4 4.59539,8.675 5.12125,9.5 0.52587,0.825 1.88263,3.525 3.01503,6 1.1324,2.475 4.23853,8.55 6.9025,13.5 4.74246,8.81207 4.91327,8.99284 8.18019,8.65722 1.83513,-0.18853 3.82151,-0.74174 4.41418,-1.22935 C 432.54264,767.31114 445.382,761 446.70602,761 c 0.71568,0 2.98043,-0.9 5.0328,-2 2.05236,-1.1 4.37779,-2 5.16763,-2 0.78984,0 2.1465,-0.62547 3.01481,-1.38994 0.86831,-0.76446 4.05374,-2.39327 7.07874,-3.61957 3.025,-1.2263 6.91801,-2.85083 8.65113,-3.61006 1.73312,-0.75924 3.64562,-1.38043 4.25,-1.38043 0.60438,0 1.09887,-0.41425 1.09887,-0.92054 0,-0.5063 1.35453,-1.21805 3.01007,-1.58167 1.65553,-0.36362 4.24303,-1.2503 5.75,-1.9704 1.50696,-0.7201 4.53993,-2.0781 6.73993,-3.01778 2.2,-0.93967 6.25646,-2.78875 9.01435,-4.10906 2.7579,-1.3203 5.36397,-2.40055 5.79128,-2.40055 0.42731,0 4.44922,-1.8 8.93758,-4 4.48836,-2.2 8.54448,-4 9.01359,-4 0.46911,0 2.85324,-0.91125 5.29806,-2.02499 3.71076,-1.69045 4.44514,-2.48492 4.44514,-4.80887 0,-1.53114 0.66069,-3.65739 1.4682,-4.72501 0.8075,-1.06762 1.4825,-3.15207 1.5,-4.63211 0.0175,-1.48004 0.4818,-2.9691 1.0318,-3.30902 0.55,-0.33992 1.00277,-1.60398 1.00616,-2.80902 0.003,-1.20504 0.67839,-3.47992 1.5,-5.05529 0.82161,-1.57537 1.49384,-3.88277 1.49384,-5.12755 0,-1.24479 0.675,-2.82345 1.5,-3.50814 0.825,-0.68469 1.5,-2.73823 1.5,-4.56343 0,-1.82519 0.45,-3.59665 1,-3.93657 0.55,-0.33992 1,-1.68992 1,-3 0,-1.31008 0.45,-2.66008 1,-3 0.55,-0.33992 1,-1.42923 1,-2.4207 0,-3.18829 5.73036,-14.49919 8.66041,-17.09438 5.06976,-4.49037 8.82365,-5.98492 15.03244,-5.98492 6.99548,0 11.16966,1.88647 17.68376,7.99198 4.36658,4.09269 4.62339,4.62657 4.62339,9.61169 0,2.90306 -0.45,5.55641 -1,5.89633 -0.55,0.33992 -1,1.43638 -1,2.43657 0,1.0002 -0.675,2.37874 -1.5,3.06343 -0.825,0.68469 -1.5,2.70969 -1.5,4.5 0,1.79031 -0.675,3.81531 -1.5,4.5 -0.825,0.68469 -1.5,2.22878 -1.5,3.43132 0,1.20253 -0.66069,3.05993 -1.4682,4.12755 -0.8075,1.06762 -1.49682,3.06613 -1.5318,4.44113 -0.035,1.375 -0.7243,3.37351 -1.5318,4.44113 -0.80751,1.06762 -1.4682,3.40356 -1.4682,5.19098 0,1.78742 -0.45,3.52797 -1,3.86789 -0.55,0.33992 -1,2.08047 -1,3.86789 0,1.78742 -0.66069,4.12336 -1.4682,5.19098 -0.8075,1.06762 -1.48528,3.29113 -1.50616,4.94113 -0.0209,1.65 -0.71019,4.28894 -1.5318,5.86431 -0.82161,1.57537 -1.49384,4.10777 -1.49384,5.62755 0,1.51979 -0.675,3.32345 -1.5,4.00814 -0.825,0.68469 -1.5,2.73823 -1.5,4.56343 0,1.82519 -0.45,3.59665 -1,3.93657 -0.55,0.33992 -1.00277,1.82898 -1.00616,3.30902 -0.003,1.48004 -0.67839,3.97992 -1.5,5.55529 -0.82161,1.57537 -1.49384,4.40232 -1.49384,6.28212 0,1.87979 -0.675,5.03331 -1.5,7.00781 -0.825,1.97451 -1.5,5.30849 -1.5,7.40887 0,2.10037 -0.45,4.09697 -1,4.43689 -0.55,0.33992 -1,2.60075 -1,5.02407 0,2.42332 -0.6315,6.33426 -1.40333,8.69098 -0.77183,2.35672 -1.59596,7.97243 -1.83141,12.47935 -0.23544,4.50691 -0.97481,8.85316 -1.64303,9.65833 -1.7436,2.1009 -0.99874,33.58583 0.93834,39.66355 2.51144,7.87975 3.70909,8.87225 11.00477,9.11962 6.86373,0.23272 13.23917,-1.49726 16.16321,-4.3859 0.9743,-0.9625 2.1534,-1.75 2.62022,-1.75 C 592.29771,863 613,844.28714 613,842.97744 c 0,-0.38194 2.25,-3.11628 5,-6.07632 2.75,-2.96003 5,-5.70617 5,-6.10254 0,-0.39637 0.81227,-1.5257 1.80505,-2.50962 0.99278,-0.98393 3.35528,-3.81247 5.25,-6.28566 1.89472,-2.47318 3.9947,-5.17318 4.66661,-6 8.3961,-10.33175 13.22985,-16.65496 13.25166,-17.335 0.0147,-0.45744 1.60168,-2.75379 3.52668,-5.103 1.925,-2.3492 3.5,-4.99008 3.5,-5.8686 0,-0.87853 0.57273,-1.95718 1.27274,-2.39701 C 657.92977,784.25853 666,771.71471 666,770.18028 666,769.53113 666.46412,769 667.03138,769 c 0.56727,0 1.33207,-0.7875 1.69958,-1.75 0.3675,-0.9625 1.03472,-2.2 1.4827,-2.75 2.68993,-3.30251 5.78634,-8.8428 5.78634,-10.35328 0,-0.97045 0.66069,-2.63797 1.4682,-3.70559 0.8075,-1.06762 1.4825,-2.95363 1.5,-4.19113 0.0175,-1.2375 0.4818,-2.25 1.0318,-2.25 0.55,0 1,-1.13912 1,-2.53138 0,-1.39227 0.675,-2.79041 1.5,-3.10699 0.825,-0.31659 1.5,-1.50453 1.5,-2.63988 0,-1.13535 0.66657,-2.80082 1.48127,-3.70105 0.8147,-0.90024 3.4022,-5.39821 5.75,-9.9955 6.0367,-11.8206 6.76021,-13.0252 7.8233,-13.0252 0.51998,0 0.94543,-0.52831 0.94543,-1.17403 0,-1.22022 11.75701,-16.07332 13.18672,-16.6593 0.4473,-0.18334 0.82602,-0.85834 0.8416,-1.5 0.0496,-2.04229 13.89989,-15.77605 21.85057,-21.66667 1.85586,-1.375 4.21733,-3.2875 5.2477,-4.25 1.03038,-0.9625 2.52605,-1.75 3.32372,-1.75 0.79767,0 1.81017,-0.61793 2.25,-1.37319 0.43983,-0.75525 3.13034,-2.54669 5.97892,-3.98098 2.84858,-1.43429 5.46264,-3.06636 5.80902,-3.62681 0.34638,-0.56046 1.61573,-1.03333 2.82077,-1.05082 1.20504,-0.0175 3.06449,-0.6925 4.13211,-1.5 1.06762,-0.80751 2.91098,-1.4682 4.09636,-1.4682 1.18538,0 3.59039,-0.71595 5.34447,-1.591 2.59422,-1.29417 5.97216,-1.52738 18.10532,-1.25 10.1973,0.23312 15.31098,0.73644 16.1644,1.591 0.68657,0.6875 2.47618,1.25 3.97689,1.25 1.50072,0 3.40357,0.675 4.22857,1.5 0.825,0.825 1.80522,1.5 2.17827,1.5 0.37305,0 2.82778,1.6875 5.45496,3.75 2.62717,2.0625 5.70072,4.39139 6.8301,5.17531 1.12937,0.78392 2.85912,2.92142 3.84387,4.75 0.98476,1.82858 2.10657,3.32469 2.49291,3.32469 0.38634,0 1.71378,2.025 2.94985,4.5 1.23608,2.475 2.55737,4.5 2.93621,4.5 0.37884,0 1.92063,-3.4875 3.42621,-7.75 5.78772,-16.38581 10.21637,-22.53764 17.16278,-23.8408 4.26273,-0.79969 16.13971,0.41289 16.95432,1.73095 0.33421,0.54077 1.66949,1.38692 2.96728,1.88034 3.36282,1.27854 6.4461,8.26596 6.4461,14.60832 0,2.88924 -0.45,5.53127 -1,5.87119 -0.55,0.33992 -1.00277,3.62898 -1.00616,7.30902 -0.004,3.97886 -0.61167,7.852 -1.5,9.55529 C 886.66736,688.949 886,692.83164 886,696.05529 c 0,3.20467 -0.38873,6.06692 -0.86383,6.36055 -0.47511,0.29364 -1.08956,3.68862 -1.36544,7.54442 -0.27588,3.85579 -0.96177,7.5796 -1.52419,8.27514 -0.56243,0.69553 -1.34837,3.7396 -1.74654,6.7646 -0.39817,3.025 -1.06258,5.95 -1.47647,6.5 -0.41389,0.55 -1.0126,3.6516 -1.33048,6.89245 -0.31787,3.24085 -1.05385,6.36835 -1.6355,6.95 C 875.4759,745.9241 875,748.13958 875,750.26574 c 0,2.12616 -0.54321,4.84866 -1.20714,6.05 -0.66393,1.20134 -1.54339,4.65926 -1.95437,7.68426 -1.4268,10.50194 -2.45966,15.51184 -3.64584,17.68426 -0.65596,1.20134 -1.19265,4.43728 -1.19265,7.19098 0,2.7537 -0.41084,5.26064 -0.91299,5.57098 -0.50214,0.31034 -1.22802,2.4744 -1.61306,4.80902 -0.38504,2.33462 -1.04881,4.69476 -1.47504,5.24476 -0.42623,0.55 -1.10217,3.475 -1.50207,6.5 -0.39991,3.025 -1.10991,6.22916 -1.57777,7.12035 -0.46787,0.89119 -1.28377,4.04119 -1.81313,7 -0.52936,2.95881 -1.44839,7.40465 -2.0423,9.87965 -2.42679,10.11331 -2.64944,9.63114 2.47521,5.36046 9.9214,-8.2681 20.22799,-17.33725 26.10524,-22.97096 3.37925,-3.23922 9.03181,-8.43102 12.56123,-11.53731 5.62703,-4.95244 17.69353,-17.48083 49.50358,-51.39855 8.68531,-9.26078 12.19721,-14.88932 12.25717,-19.64462 0.0187,-1.48004 0.42424,-2.93221 0.90129,-3.22704 0.47705,-0.29484 1.10779,-2.66914 1.40165,-5.27624 0.29385,-2.60709 1.02854,-4.90492 1.63264,-5.10629 0.60409,-0.20136 1.09835,-2.09647 1.09835,-4.21135 0,-2.11489 0.62087,-4.46611 1.37971,-5.22495 0.75884,-0.75885 1.70209,-3.37849 2.0961,-5.82143 0.39401,-2.44295 1.34814,-5.43839 2.12029,-6.65654 0.77214,-1.21815 1.4039,-3.18275 1.4039,-4.36578 0,-1.89028 1.82797,-8.398 4.0503,-14.4194 2.99933,-8.12667 3.9497,-11.38974 3.9497,-13.56119 0,-1.37188 0.83935,-3.213 1.86522,-4.09138 1.02588,-0.87838 2.19056,-3.34089 2.58818,-5.47224 0.8246,-4.42002 2.29294,-6.03501 8.32739,-9.15903 9.17411,-4.7494 22.62091,-1.91983 28.07071,5.90682 2.0908,3.00265 2.2897,4.14343 1.7944,10.29052 -0.3063,3.80242 -1.0389,7.21133 -1.6279,7.57535 -0.589,0.36402 -1.3466,2.99045 -1.6837,5.8365 -0.3371,2.84606 -0.939,5.17465 -1.3377,5.17465 -0.3986,0 -1.001,2.01516 -1.3385,4.47814 -0.3376,2.46297 -1.0209,5.27547 -1.5184,6.25 -0.9758,1.91162 -2.9366,8.92696 -3.8492,13.77186 -0.3107,1.65 -1.1783,3.88763 -1.9278,4.97251 -0.7495,1.08487 -1.3627,3.64582 -1.3627,5.69098 0,2.04516 -0.45,3.99659 -1,4.33651 -0.55,0.33992 -1.0028,1.60398 -1.0062,2.80902 0,1.20504 -0.6783,3.47992 -1.5,5.05529 -0.8216,1.57537 -1.5097,4.27537 -1.5292,6 -0.019,1.72463 -0.6786,4.26069 -1.4646,5.63569 -0.78602,1.375 -1.44508,3.65149 -1.46456,5.05887 -0.0195,1.40738 -0.69613,3.43238 -1.50364,4.5 -0.8075,1.06762 -1.4825,3.14216 -1.5,4.61009 -0.0175,1.46793 -0.66865,3.94293 -1.44702,5.5 -1.24757,2.49567 -3.66176,11.47021 -5.26739,19.58104 -0.74848,3.78096 1.14224,3.46877 2.7684,-0.45711 0.73063,-1.76391 2.13523,-4.01391 3.12132,-5 C 996.1932,774.8068 997,773.1551 997,772.12244 c 0,-1.03265 0.65757,-2.42329 1.46127,-3.0903 0.8037,-0.66701 1.75983,-2.15355 2.12483,-3.30342 0.365,-1.14988 1.9947,-3.92174 3.6217,-6.1597 1.6269,-2.23796 3.5948,-5.41902 4.373,-7.06902 0.7783,-1.65 2.3023,-4.35 3.3867,-6 1.0844,-1.65 2.7187,-4.328 3.6318,-5.9511 0.913,-1.62311 2.2767,-3.56775 3.0304,-4.32143 0.7537,-0.75368 1.3703,-1.99082 1.3703,-2.74921 0,-0.75838 0.5866,-1.73874 1.3036,-2.17857 0.717,-0.43983 2.8545,-3.04969 4.75,-5.79969 1.8955,-2.75 4.0089,-5.35986 4.6964,-5.79969 0.6875,-0.43983 1.25,-1.36368 1.25,-2.053 0,-1.04954 5.2147,-9.01107 6.9738,-10.64731 0.2957,-0.275 1.7657,-2.14855 3.2668,-4.16344 1.501,-2.01489 3.3454,-4.27968 4.0986,-5.03287 0.7531,-0.75318 2.0229,-2.61667 2.8216,-4.14107 1.5508,-2.95973 19.7303,-21.80513 24.8685,-25.77935 1.6947,-1.3108 4.2939,-3.39522 5.776,-4.63205 1.4821,-1.23683 3.2572,-2.24933 3.9447,-2.25 0.6875,-6.7e-4 1.25,-0.44364 1.25,-0.98437 0,-0.54074 2.3625,-2.17312 5.25,-3.62751 2.8875,-1.45439 5.4,-3.03697 5.5833,-3.51685 0.1834,-0.47987 1.3658,-0.87249 2.6276,-0.87249 1.2618,0 2.8544,-0.675 3.5391,-1.5 0.6847,-0.825 2.4707,-1.5 3.9688,-1.5 1.4982,0 4.1929,-0.73284 5.9884,-1.62853 2.6368,-1.3154 4.9255,-1.49725 11.9036,-0.9458 7.8611,0.62124 10.8133,1.48608 19.8611,5.81832 3.4365,1.64546 10.9146,8.99668 11.7045,11.50601 0.3896,1.2375 1.0763,2.25 1.5259,2.25 0.9484,0 4.0477,8.98757 4.0477,11.7379 0,1.02415 0.5315,2.39356 1.181,3.04313 1.6804,1.68035 1.7095,33.72848 0.032,35.40579 -0.6673,0.66725 -1.2275,3.48568 -1.245,6.26318 -0.018,2.84538 -0.6728,5.89742 -1.5,6.99113 -0.8124,1.0741 -1.4682,4.0627 -1.4682,6.69098 0,2.61242 -0.3909,4.99144 -0.8686,5.28671 -0.4778,0.29527 -1.1725,2.437 -1.5439,4.7594 -0.3714,2.3224 -1.0451,4.69488 -1.4972,5.27217 -0.452,0.57728 -1.0757,2.17461 -1.3859,3.54961 -0.8305,3.68187 -5.2406,15.86957 -6.0269,16.65582 -0.3726,0.37263 -0.6775,1.89741 -0.6775,3.3884 0,1.49099 -0.675,3.27109 -1.5,3.95578 -0.9153,0.75964 -1.5,2.95124 -1.5,5.62244 0,2.40766 -0.45,4.37756 -1,4.37756 -0.55,0 -1,1.26399 -1,2.80887 0,1.54488 -0.6607,3.68238 -1.4682,4.75 -0.8075,1.06762 -1.4825,2.91632 -1.5,4.10822 -0.017,1.19191 -0.898,4.18785 -1.9567,6.65766 -1.0587,2.46981 -2.2348,6.55712 -2.6135,9.08291 -0.3788,2.52579 -1.0423,4.59234 -1.4745,4.59234 -0.4321,0 -1.0117,1.9125 -1.2879,4.25 -0.2762,2.3375 -1.2057,7.175 -2.0656,10.75 -3.0568,12.7092 -1.4779,28.74545 3.1272,31.76283 3.7453,2.45404 9.9884,1.79097 16.7392,-1.77784 3.3,-1.74454 6.45,-3.69234 7,-4.32844 0.55,-0.6361 3.5284,-3.03899 6.6186,-5.33976 3.0903,-2.30076 6.6903,-5.58343 8,-7.29482 3.511,-4.58766 10.9832,-12.96317 14.1314,-15.83979 1.5125,-1.38203 2.75,-3.0208 2.75,-3.64172 0,-0.62092 1.7428,-2.99792 3.8729,-5.28222 2.1301,-2.28431 4.1409,-4.8519 4.4686,-5.70576 0.3276,-0.85386 1.0599,-1.55248 1.6271,-1.55248 0.5673,0 1.0314,-0.44908 1.0314,-0.99795 0,-0.54888 2.0383,-3.58638 4.5295,-6.75 2.4913,-3.16363 5.7404,-7.55205 7.2203,-9.75205 1.48,-2.2 4.5409,-6.475 6.802,-9.5 2.2612,-3.025 4.7469,-6.9625 5.5238,-8.75 0.7769,-1.7875 1.7528,-3.25 2.1685,-3.25 0.4158,0 0.7559,-0.68912 0.7559,-1.53138 0,-0.84227 0.675,-1.79041 1.5,-2.10699 0.825,-0.31659 1.5,-1.44159 1.5,-2.5 0,-1.05842 0.675,-2.18342 1.5,-2.5 0.825,-0.31659 1.5,-1.14736 1.5,-1.84617 0,-0.69882 0.675,-1.83077 1.5,-2.51546 0.825,-0.68469 1.5,-2.10391 1.5,-3.15383 0,-1.04992 0.675,-2.16796 1.5,-2.48454 0.825,-0.31659 1.5,-1.34145 1.5,-2.27749 0,-0.93603 0.6607,-2.57539 1.4682,-3.64301 0.8075,-1.06762 1.4825,-2.75198 1.5,-3.74301 0.017,-0.99104 0.9095,-3.46604 1.9822,-5.5 1.0728,-2.03397 2.1901,-4.37312 2.4829,-5.19812 0.2929,-0.825 2.101,-4.2 4.018,-7.5 1.9169,-3.3 3.9937,-7.2375 4.6149,-8.75 0.6212,-1.5125 1.5354,-2.75 2.0316,-2.75 0.4962,0 0.9022,-0.61541 0.9022,-1.36758 0,-0.75217 2.078,-4.46467 4.6178,-8.25 2.5397,-3.78533 4.9828,-7.78242 5.429,-8.88242 0.4463,-1.1 1.987,-3.35 3.4238,-5 1.4368,-1.65 4.7312,-5.43396 7.3209,-8.4088 8.3368,-9.57678 21.4703,-21.91757 26.0797,-24.50574 0.8959,-0.50299 1.8538,-1.17799 2.1288,-1.5 1.1179,-1.30896 6.9862,-5.08546 7.9023,-5.08546 0.5409,0 2.693,-1.0125 4.7825,-2.25 4.556,-2.69832 9.7292,-4.74663 13.8152,-5.47009 1.65,-0.29215 3.6336,-1.03714 4.408,-1.65554 0.912,-0.72822 7.1127,-1.12437 17.5994,-1.12437 15.7299,0 17.5733,0.27967 23.4926,3.56408 0.825,0.45777 3.213,1.76167 5.3066,2.89757 9.7562,5.29319 18.2807,15.1256 21.1296,24.37151 0.7925,2.57189 3.002,1.53231 3.3732,-1.5871 0.1701,-1.42984 0.9576,-3.13773 1.75,-3.79533 0.7923,-0.65759 1.4549,-2.15302 1.4724,-3.32317 0.017,-1.17016 0.6925,-3.00107 1.5,-4.06869 0.8075,-1.06762 1.4682,-2.99424 1.4682,-4.28138 0,-1.28714 0.675,-2.59928 1.5,-2.91586 0.825,-0.31659 1.5,-1.13361 1.5,-1.81561 0,-1.69286 3.4632,-5.5549 6.3019,-7.02764 4.1952,-2.17649 7.9705,-2.6635 15.3133,-1.97542 6.1937,0.5804 7.668,1.10517 10.2803,3.65915 4.9975,4.88591 8.7306,14.67486 6.1943,16.24239 -0.5994,0.37044 -1.0898,1.73551 -1.0898,3.03348 0,1.29797 -0.6433,3.63391 -1.4295,5.19098 -1.7519,3.46935 -4.5705,12.9193 -4.5705,15.32343 0,0.9695 -0.675,2.32292 -1.5,3.00761 -0.825,0.68469 -1.5,2.5459 -1.5,4.13601 0,1.59012 -0.4254,3.67252 -0.9454,4.62756 -0.5199,0.95504 -1.2153,3.42393 -1.5453,5.48643 -0.33,2.0625 -1.0295,3.75 -1.5546,3.75 -0.5251,0 -0.9547,1.29856 -0.9547,2.88569 0,1.58713 -0.6722,4.17463 -1.4938,5.75 -0.8217,1.57537 -1.4967,4.2408 -1.5,5.92318 0,1.68238 -0.6669,3.93238 -1.4744,5 -0.8075,1.06762 -1.4825,3.31363 -1.5,4.99113 -0.017,1.6775 -0.4938,3.51196 -1.0584,4.07658 -0.5646,0.56461 -1.3014,3.46711 -1.6374,6.45 -0.336,2.98288 -0.9569,5.87342 -1.3799,6.42342 -0.4229,0.55 -1.088,3.14303 -1.4779,5.7623 -0.3899,2.61926 -1.1071,5.00832 -1.5936,5.30901 -0.4865,0.3007 -0.8846,2.51302 -0.8846,4.91628 0,2.55071 -0.6244,4.99393 -1.5,5.86955 -0.8499,0.84991 -1.5,3.29302 -1.5,5.63717 0,2.27545 -0.5367,5.12009 -1.1926,6.32143 -1.1724,2.14709 -1.4819,3.67028 -3.7962,18.68426 -0.6358,4.125 -1.5634,8.4 -2.0614,9.5 -0.4979,1.1 -1.1487,7.175 -1.4463,13.5 -1.3976,29.70737 -0.877,34.58689 4.1627,39.01176 7.0517,6.19153 16.6069,2.72289 30.2465,-10.97988 9.8264,-9.87199 20.1505,-21.34126 21.454,-23.8339 0.4883,-0.93389 2.8045,-3.72298 5.1469,-6.19798 2.3425,-2.475 5.5055,-6.51498 7.029,-8.97774 1.5235,-2.46275 3.2622,-5.03464 3.8637,-5.71529 0.6015,-0.68066 1.676,-1.93042 2.3878,-2.77724 1.9492,-2.31916 12.2059,-17.40242 12.2059,-17.94972 0,-0.26233 1.125,-1.69086 2.5,-3.17451 1.375,-1.48365 2.5,-3.54596 2.5,-4.58291 0,-1.03695 0.6579,-2.13781 1.4619,-2.44636 0.8041,-0.30854 1.7549,-1.53192 2.113,-2.71861 0.358,-1.18669 2.1752,-4.48388 4.038,-7.32709 1.8629,-2.8432 3.3871,-5.73277 3.3871,-6.42126 0,-0.68848 0.7875,-2.11977 1.75,-3.18063 1.3662,-1.50584 1.8826,-4.48367 2.3546,-13.57874 0.9722,-18.73226 2.9505,-37.39336 4.1984,-39.60305 1.0795,-1.91147 1.5736,-5.6074 3.482,-26.04685 0.4108,-4.4 1.3022,-8.98292 1.981,-10.18426 0.6787,-1.20134 1.234,-4.40888 1.234,-7.12787 0,-2.71899 0.675,-6.55912 1.5,-8.53363 0.825,-1.9745 1.5,-5.3779 1.5,-7.5631 0,-2.18521 0.45,-4.25122 1,-4.59114 0.55,-0.33992 1.0028,-2.50398 1.0062,-4.80902 0,-2.30504 0.6281,-5.3831 1.3883,-6.84014 0.7603,-1.45704 1.7033,-5.84632 2.0958,-9.75396 0.3924,-3.90763 1.065,-7.32206 1.4947,-7.58762 0.4297,-0.26556 1.0903,-2.95668 1.4681,-5.98028 0.3778,-3.0236 1.1054,-5.75611 1.6169,-6.07223 0.5115,-0.31613 0.93,-2.20378 0.93,-4.19477 0,-1.99099 0.411,-5.00193 0.9134,-6.69098 1.1424,-3.8409 3.0403,-11.2725 3.7212,-14.571 0.2838,-1.375 0.9059,-3.4 1.3824,-4.5 0.931,-2.14918 2.5534,-8.9926 4.0114,-16.92039 0.4977,-2.70621 1.3859,-5.21762 1.9737,-5.58091 0.5878,-0.36329 1.3137,-2.42412 1.6131,-4.57962 0.2993,-2.15549 0.926,-4.81908 1.3926,-5.91908 0.4665,-1.1 1.126,-3.6875 1.4655,-5.75 0.3396,-2.0625 1.0469,-3.75 1.572,-3.75 0.5251,0 0.9547,-1.69987 0.9547,-3.77749 0,-2.07763 0.6112,-4.66513 1.3581,-5.75 0.747,-1.08488 1.6674,-3.66001 2.0453,-5.72251 0.378,-2.0625 1.1168,-3.75 1.6419,-3.75 0.5251,0 0.9547,-1.2949 0.9547,-2.87756 0,-1.58265 0.675,-3.43775 1.5,-4.12244 0.825,-0.68469 1.5143,-2.42729 1.5318,-3.87244 0.017,-1.44516 0.6925,-3.50107 1.5,-4.56869 0.8075,-1.06762 1.4682,-3.17856 1.4682,-4.69098 0,-1.51242 0.4154,-3.00657 0.9231,-3.32034 0.5076,-0.31377 1.2399,-2.01305 1.6271,-3.77619 0.3873,-1.76314 1.0751,-3.89548 1.5285,-4.73854 0.4534,-0.84305 1.5546,-3.33282 2.447,-5.53282 2.0433,-5.03752 4.4314,-10.48309 5.5852,-12.73643 0.489,-0.95504 0.8891,-2.19474 0.8891,-2.7549 0,-0.56016 1.125,-3.35049 2.5,-6.20073 1.375,-2.85023 2.5,-5.71793 2.5,-6.37265 0,-0.65472 0.675,-1.7506 1.5,-2.43529 0.825,-0.68469 1.5,-2.10391 1.5,-3.15383 0,-1.04992 0.6475,-2.15741 1.4389,-2.46109 0.7914,-0.30369 1.7271,-1.86457 2.0794,-3.46862 0.3524,-1.60405 1.0549,-2.91646 1.5612,-2.91646 0.5063,0 0.9205,-0.6794 0.9205,-1.50979 0,-0.83038 0.9,-2.28039 2,-3.22224 1.1,-0.94185 2,-2.45734 2,-3.36777 0,-0.91042 0.675,-2.21551 1.5,-2.9002 0.825,-0.68469 1.5,-1.64475 1.5,-2.13348 0,-3.44207 27.002,-34.86652 29.9597,-34.86652 0.5721,0 1.0403,-0.46114 1.0403,-1.02475 0,-0.56361 1.0125,-1.41857 2.25,-1.8999 1.2375,-0.48134 3.9575,-2.0452 6.0444,-3.47525 2.0869,-1.43006 4.6369,-2.6001 5.6667,-2.6001 1.0297,0 2.0591,-0.5625 2.2874,-1.25 0.3001,-0.90361 4.4598,-1.33939 15.0107,-1.57258 13.6646,-0.30201 14.7278,-0.19037 16.6682,1.75 1.1399,1.13992 3.2509,2.07258 4.691,2.07258 1.9026,0 4.3628,1.77914 9,6.50851 3.5099,3.57968 6.3816,6.98682 6.3816,7.57143 0,0.5846 0.675,1.73792 1.5,2.56292 0.825,0.825 1.5,2.3413 1.5,3.36955 0,1.02826 0.45,2.14767 1,2.48759 0.55,0.33992 1,1.43638 1,2.43657 0,1.0002 0.6778,2.38104 1.5062,3.06855 0.8284,0.6875 1.4111,2.49777 1.2948,4.02283 -0.1162,1.52505 0.4421,3.56007 1.2407,4.52227 1.9002,2.28966 2.5633,27.88053 0.9962,38.44978 -0.6116,4.125 -1.5416,11.07381 -2.0667,15.44181 -0.5252,4.36799 -1.4085,8.39549 -1.963,8.95 -0.5545,0.5545 -1.0082,3.13605 -1.0082,5.73676 0,2.60549 -0.5982,5.32681 -1.3324,6.06097 -0.7328,0.73282 -1.6209,3.76801 -1.9734,6.74486 -0.3526,2.97685 -1.103,5.87441 -1.6676,6.43902 -0.5646,0.56462 -1.0294,1.72408 -1.0328,2.57658 0,0.8525 -0.6783,2.83894 -1.5,4.41431 -0.8216,1.57537 -1.4938,4.13631 -1.4938,5.69098 0,1.55467 -0.45,3.10479 -1,3.44471 -0.55,0.33992 -1,1.7306 -1,3.0904 0,1.3598 -0.675,2.73139 -1.5,3.04797 -0.825,0.31659 -1.5,1.79145 -1.5,3.27749 0,1.48603 -0.6607,3.57539 -1.4682,4.64301 -0.8075,1.06762 -1.4825,2.89853 -1.5,4.06869 -0.017,1.17015 -0.7068,2.68775 -1.5318,3.37244 -0.825,0.68469 -1.5,2.24593 -1.5,3.46944 0,1.2235 -0.8538,3.20898 -1.8973,4.41218 -1.0436,1.20319 -1.6873,2.99098 -1.4305,3.97286 0.2568,0.98188 -0.2394,2.3714 -1.1027,3.08782 -0.8632,0.71642 -1.5695,2.14749 -1.5695,3.18014 0,1.03266 -0.45,1.87756 -1,1.87756 -0.55,0 -1,1.0699 -1,2.37756 0,1.30765 -0.6483,2.91555 -1.4406,3.57311 -0.7923,0.65756 -1.2218,1.76556 -0.9545,2.46223 0.2674,0.69667 -0.2094,1.84387 -1.0594,2.54933 -0.85,0.70546 -1.5455,2.07246 -1.5455,3.03777 0,0.96531 -0.675,2.31531 -1.5,3 -0.825,0.68469 -1.5,2.55391 -1.5,4.15383 0,1.66323 -0.6424,3.15543 -1.5,3.48454 -0.825,0.31659 -1.5,1.44159 -1.5,2.5 0,1.05842 -0.675,2.18342 -1.5,2.5 -0.825,0.31659 -1.5,1.66659 -1.5,3 0,1.33342 -0.675,2.68342 -1.5,3 -0.825,0.31659 -1.5,1.60432 -1.5,2.86163 0,1.25731 -0.675,2.54504 -1.5,2.86163 -0.825,0.31658 -1.5,1.48972 -1.5,2.60699 0,1.11726 -0.45,2.03138 -1,2.03138 -0.55,0 -1,0.9 -1,2 0,1.1 -0.45,2 -1,2 -0.55,0 -1,0.6199 -1,1.37756 0,0.75765 -0.67,1.93364 -1.489,2.6133 -0.8189,0.67967 -1.2739,1.58378 -1.011,2.00914 0.2629,0.42536 -0.1921,1.32947 -1.011,2.00914 -0.819,0.67966 -1.489,1.86977 -1.489,2.64469 0,0.77492 -0.675,1.66796 -1.5,1.98454 -0.8367,0.32106 -1.5,1.80766 -1.5,3.36163 0,1.55397 -0.6633,3.04057 -1.5,3.36163 -0.825,0.31658 -1.5,1.23258 -1.5,2.03556 0,0.80297 -0.5625,2.07065 -1.25,2.81707 -1.5339,1.66532 -4.1834,6.15275 -6.3066,10.68148 -0.8756,1.86766 -2.2336,4.03731 -3.0177,4.82143 -0.7841,0.78413 -1.4257,2.18674 -1.4257,3.11691 0,0.93017 -1.125,2.53606 -2.5,3.56864 -1.375,1.03259 -2.5,2.71439 -2.5,3.73735 0,1.02296 -0.45,1.85993 -1,1.85993 -0.55,0 -1,0.59395 -1,1.31989 0,0.72594 -1.35,2.83199 -3,4.68011 -1.65,1.84812 -3,4.19329 -3,5.21149 0,1.01821 -0.6307,2.09329 -1.4015,2.38907 -0.7708,0.29578 -1.6313,1.41697 -1.9123,2.49153 -0.7744,2.96111 -0.9341,3.25765 -2.8802,5.34647 -0.9933,1.06621 -1.806,2.47361 -1.806,3.12756 0,0.65394 -0.675,1.74919 -1.5,2.43388 -0.825,0.68469 -1.5,2.31479 -1.5,3.62244 0,1.46387 -0.586,2.37756 -1.5248,2.37756 -0.8386,0 -1.9524,1.125 -2.4752,2.5 -0.5228,1.375 -1.2991,2.50351 -1.7252,2.5078 -0.4262,0.004 -1.2784,1.01679 -1.8939,2.25 -3.3453,6.70294 -4.6176,8.7422 -5.4541,8.7422 -0.5098,0 -0.9268,0.64286 -0.9268,1.42857 0,0.78572 -0.5704,2.02322 -1.2675,2.75 -2.2854,2.38273 -8.7325,11.80471 -8.7325,12.76203 0,0.51478 -1.35,2.41402 -3,4.22054 -1.65,1.80652 -3,3.65329 -3,4.10393 0,0.45064 -0.4432,1.36285 -0.9849,2.02714 -4.8345,5.92843 -6.0151,7.70802 -6.0151,9.06696 0,0.86376 -0.9,2.05213 -2,2.64083 -1.1,0.5887 -2,1.65109 -2,2.36087 0,0.70978 -1.0925,2.31685 -2.4278,3.57127 -1.3352,1.25442 -2.1871,2.90786 -1.893,3.67431 0.2941,0.76645 -0.076,1.41071 -0.8222,1.43168 -0.7464,0.021 -3.0564,2.54124 -5.1335,5.6006 l -3.7765,5.56247 0.3883,32.1494 c 0.4447,36.80535 1.8041,48.29275 6.3655,53.78883 0.6261,0.75447 1.4484,2.60674 1.8272,4.11616 0.3789,1.50943 1.0597,2.74441 1.513,2.74441 0.4533,0 1.1335,0.97439 1.5115,2.16531 0.8809,2.77554 3.9484,5.79065 8.7547,8.60521 5.2076,3.04959 19.0537,3.29223 20.6222,0.36138 0.7199,-1.34506 1.7394,-1.7267 3.6416,-1.36309 1.4529,0.27776 2.9314,0.0629 3.2854,-0.47752 0.354,-0.5404 1.8079,-1.61451 3.2308,-2.38692 9.2349,-5.01279 23.1693,-17.06572 33.9943,-29.40437 4.7098,-5.36829 13.9185,-17.29722 13.9185,-18.02997 0,-0.50532 5.5679,-8.03797 7,-9.47003 0.7934,-0.7934 2.8678,-4.22023 4.6914,-7.75 0.9235,-1.7875 2.0457,-3.25 2.4938,-3.25 0.4481,0 0.8148,-0.57461 0.8148,-1.27691 0,-0.7023 1.8,-3.67249 4,-6.60041 2.2,-2.92793 4,-5.95332 4,-6.72309 0,-0.76977 0.3975,-1.39959 0.8834,-1.39959 0.4858,0 1.1556,-0.7875 1.4883,-1.75 0.3328,-0.9625 1.5155,-3.1 2.6283,-4.75 1.1128,-1.65 2.2955,-3.7875 2.6283,-4.75 0.3327,-0.9625 0.8959,-1.75 1.2515,-1.75 0.3556,0 2.2105,-3.2625 4.122,-7.25 1.9115,-3.9875 3.7488,-7.475 4.0829,-7.75 0.334,-0.275 0.9102,-1.7375 1.2804,-3.25 0.3701,-1.5125 1.1144,-2.75 1.654,-2.75 0.5395,0 0.9809,-0.8587 0.9809,-1.90822 0,-1.04953 2.0082,-3.97453 4.4627,-6.5 4.5478,-4.67935 6.385,-5.29936 14.0373,-4.73715 3.8398,0.28212 9.9399,4.5031 12.5044,8.65243 1.1697,1.89262 1.9956,4.97744 1.9956,7.4536 0,4.71748 -4.489,18.37038 -6.6222,20.14076 -0.7578,0.62891 -1.3778,2.00249 -1.3778,3.05241 0,1.04992 -0.675,2.16796 -1.5,2.48454 -0.825,0.31659 -1.5,1.37236 -1.5,2.34617 0,0.97382 -0.675,2.33077 -1.5,3.01546 -0.825,0.68469 -1.5,1.79565 -1.5,2.46881 0,2.06012 -3.1359,7.6461 -4.6099,8.21175 -0.7646,0.29338 -1.3901,1.83527 -1.3901,3.42643 0,1.59115 -0.4289,2.89301 -0.9531,2.89301 -0.5242,0 -1.7382,1.6875 -2.6979,3.75 -0.9596,2.0625 -1.9932,3.975 -2.2969,4.25 -0.8227,0.74505 -2.6988,3.95296 -5.2635,9 -1.2577,2.475 -2.8496,4.85986 -3.5377,5.29969 -0.688,0.43983 -1.2509,1.36748 -1.2509,2.06144 0,0.69396 -0.7875,2.14471 -1.75,3.22389 -0.9625,1.07918 -3.3018,4.20153 -5.1985,6.93856 -1.8967,2.73703 -3.7417,5.20142 -4.1001,5.47642 -0.3583,0.275 -0.8315,1.02238 -1.0515,1.66084 -0.5186,1.50538 -7.6031,10.08013 -11.1457,13.49037 -1.5148,1.45817 -2.7542,3.07084 -2.7542,3.58371 0,1.0787 -12.7525,15.21214 -20.992,23.26508 -9.5263,9.31077 -20.5643,17.13104 -34.008,24.09441 -4.957,2.56755 -8.8416,4.01653 -12.2134,4.55571 -2.107,0.33692 -4.0725,1.00348 -4.3678,1.48123 -0.9471,1.53243 -26.5966,0.98197 -29.4188,-0.63135 -1.375,-0.78602 -3.6824,-1.44508 -5.1276,-1.46456 -1.4451,-0.0195 -3.1877,-0.71044 -3.8724,-1.53544 -0.6847,-0.825 -2.0209,-1.5 -2.9694,-1.5 -0.9485,0 -2.7623,-0.9 -4.0306,-2 -1.2683,-1.1 -2.6787,-2 -3.1343,-2 -1.8216,0 -14.8534,-13.36875 -16.8648,-17.30092 -1.1814,-2.30949 -2.7244,-4.65081 -3.4289,-5.20292 -0.7045,-0.55211 -1.6308,-2.10612 -2.0584,-3.45336 -0.4276,-1.34724 -1.3931,-3.06515 -2.1455,-3.81759 -0.7525,-0.75244 -1.3681,-2.43437 -1.3681,-3.73762 0,-1.30326 -0.3909,-2.61114 -0.8686,-2.90641 -0.4778,-0.29527 -1.1444,-2.26076 -1.4813,-4.36776 -0.3369,-2.107 -1.2576,-5.15448 -2.0461,-6.77217 -1.3695,-2.80996 -2.8758,-11.39718 -4.1377,-23.58869 l -0.5846,-5.64744 -2.2393,2.14744 c -1.2317,1.18109 -7.5634,9.34744 -14.0705,18.14744 -14.9056,20.15793 -35.1724,40.72838 -48.827,49.55874 -5.0529,3.26769 -9.9611,5.94126 -10.907,5.94126 -0.9459,0 -1.998,0.45 -2.3379,1 -0.3399,0.55 -1.604,1.00277 -2.809,1.00616 -1.2051,0.003 -3.4799,0.67839 -5.0553,1.5 -4.0237,2.09848 -26.2906,2.06941 -29.0768,-0.038 -1.0677,-0.80751 -2.9943,-1.4682 -4.2814,-1.4682 -1.2872,0 -2.5993,-0.675 -2.9159,-1.5 -0.3166,-0.825 -1.2967,-1.5 -2.1781,-1.5 -1.8936,0 -9.7054,-8.20967 -11.8942,-12.5 -0.8418,-1.65 -2.0942,-3.675 -2.7832,-4.5 -0.689,-0.825 -1.575,-3.3 -1.9689,-5.5 -0.3939,-2.2 -1.1369,-4.5094 -1.6512,-5.13199 -1.6142,-1.9542 -3.0714,-14.28939 -3.558,-30.11801 -0.4613,-15.00592 -1.3005,-18.0826 -3.4153,-12.52035 -0.5708,1.5013 -1.3472,2.9638 -1.7253,3.25 -1.0774,0.81553 -3.1123,4.2564 -4.2997,7.27035 -0.5958,1.5125 -1.4893,2.75 -1.9855,2.75 -0.4962,0 -0.9022,0.60615 -0.9022,1.34699 0,0.74084 -0.9,2.3847 -2,3.65301 -1.1,1.26831 -2.0021,2.57467 -2.0046,2.90301 0,0.32834 -1.2401,1.94699 -2.75,3.59699 -1.51,1.65 -4.0322,4.8953 -5.6049,7.21178 -3.9544,5.82449 -26.4201,28.66155 -30.3905,30.89293 -1.7875,1.00458 -3.25,2.14084 -3.25,2.52503 0,1.05119 -17.0133,9.19026 -17.7244,8.47922 -0.3388,-0.33879 -1.687,0.0858 -2.9961,0.94355 -1.83,1.19909 -5.3977,1.57822 -15.4362,1.64041 -8.0884,0.0501 -13.3018,-0.31678 -13.702,-0.96424 -0.3552,-0.57481 -2.4449,-1.37632 -4.6436,-1.78114 -2.1987,-0.40481 -4.2227,-1.03965 -4.4977,-1.41074 -0.275,-0.37109 -2.6089,-1.68248 -5.1864,-2.91419 -4.4203,-2.11228 -6.8247,-4.35273 -14.5524,-13.55983 -5.8409,-6.95904 -12.2528,-22.99746 -12.2722,-30.69699 -0.014,-5.39376 -1.0386,-11.87827 -1.8698,-11.82935 -0.3406,0.0201 -1.8878,1.70755 -3.4382,3.75 -10.2579,13.51293 -30.1212,33.85216 -40.2666,41.23137 -4.447,3.23457 -8.6646,6.5788 -9.3724,7.43161 -0.7078,0.85282 -2.1733,1.55058 -3.2567,1.55058 -1.0834,0 -3.114,0.9 -4.5124,2 -1.3985,1.1 -3.3554,2 -4.3487,2 -0.9934,0 -2.0843,0.45 -2.4242,1 -0.3399,0.55 -2.0185,1 -3.7303,1 -1.7117,0 -3.9713,0.77744 -5.0213,1.72765 -1.6109,1.45785 -3.8567,1.70896 -14.3807,1.60793 -9.418,-0.0904 -12.8875,-0.48055 -14.1697,-1.59334 -0.9339,-0.81049 -2.9806,-1.77896 -4.5483,-2.15216 C 1107.1681,904.5232 1095,894.64847 1095,892.0784 c 0,-0.59312 -0.4414,-1.0784 -0.9809,-1.0784 -0.5396,0 -1.2587,-1.10654 -1.5982,-2.45898 -0.3394,-1.35244 -1.248,-2.98254 -2.019,-3.62245 -0.7711,-0.6399 -1.4019,-2.20122 -1.4019,-3.46959 0,-1.26837 -0.6285,-2.9346 -1.3966,-3.70273 -0.8335,-0.83354 -1.9057,-5.8555 -2.6594,-12.45617 -1.0361,-9.0744 -1.0203,-13.2408 0.088,-23.21157 0.8093,-7.27764 1.876,-12.58751 2.6594,-13.23771 0.7371,-0.61168 1.3082,-3.13178 1.3082,-5.77212 0,-2.57753 0.6607,-5.55993 1.4682,-6.62755 0.8075,-1.06762 1.4968,-3.96613 1.5318,-6.44113 0.035,-2.475 0.7243,-5.37351 1.5318,-6.44113 0.8075,-1.06762 1.4682,-3.17856 1.4682,-4.69098 0,-1.51242 0.45,-3.02797 1,-3.36789 0.55,-0.33992 1,-2.13992 1,-4 0,-1.86008 0.45,-3.66008 1,-4 0.55,-0.33992 1,-2.4056 1,-4.5904 0,-2.6085 0.515,-4.17 1.5,-4.54797 0.8451,-0.32429 1.5,-1.81299 1.5,-3.4096 0,-1.5587 0.4108,-3.08791 0.913,-3.39825 0.5021,-0.31034 1.2163,-2.35954 1.587,-4.55378 0.3707,-2.19424 1.0849,-4.24344 1.587,-4.55378 0.5022,-0.31034 0.913,-1.80169 0.913,-3.31411 0,-1.51242 0.6607,-3.62336 1.4682,-4.69098 0.8075,-1.06762 1.4825,-3.58049 1.5,-5.58414 0.02,-2.29302 0.5877,-3.85631 1.5318,-4.21862 0.973,-0.37338 1.5,-1.92479 1.5,-4.41586 0,-2.11214 0.6607,-4.71376 1.4682,-5.78138 0.8075,-1.06762 1.4825,-3.60207 1.5,-5.63211 0.017,-2.03004 0.4818,-3.9691 1.0318,-4.30902 0.55,-0.33992 1,-2.51635 1,-4.83651 0,-2.32016 0.7495,-5.28853 1.6655,-6.59638 1.0748,-1.53446 1.8024,-5.02996 2.0512,-9.85484 0.4619,-8.95627 -1.1128,-13.06714 -5.7857,-15.10404 -2.8333,-1.23505 -3.2963,-1.2069 -4.1116,0.25 -0.5053,0.90298 -1.9663,1.64177 -3.2466,1.64177 -1.2804,0 -2.8881,0.675 -3.5728,1.5 -0.6847,0.825 -1.6364,1.5 -2.1148,1.5 -1.1717,0 -4.3479,2.82771 -13.6015,12.10931 -8.9812,9.00841 -9.651,9.77897 -10.5527,12.14069 -0.3675,0.9625 -1.0538,1.75 -1.525,1.75 -1.0317,0 -11.206,12.38238 -11.206,13.63803 0,0.48533 -1.125,2.09567 -2.5,3.57854 -1.375,1.48288 -2.5183,3.05328 -2.5406,3.48979 -0.022,0.4365 -1.3724,2.35164 -3,4.25587 -1.6277,1.90422 -2.9594,4.00422 -2.9594,4.66666 0,0.66244 -0.3375,1.35444 -0.75,1.53778 -1.2955,0.57578 -5.9298,7.23072 -6.6735,9.58333 -0.3912,1.2375 -1.1098,2.25 -1.597,2.25 -0.4871,0 -1.6232,1.5543 -2.5247,3.454 -0.9015,1.89971 -2.2726,3.97981 -3.0469,4.62245 -0.7744,0.64264 -1.4079,1.74111 -1.4079,2.44103 0,0.69993 -1.1172,2.33233 -2.4827,3.62756 -1.3655,1.29523 -2.4905,3.36746 -2.5,4.60496 -0.01,1.2375 -0.4673,2.25 -1.0173,2.25 -0.55,0 -1,0.42744 -1,0.94987 0,0.52243 -1.2375,2.88493 -2.75,5.25 -4.7505,7.42829 -5.2301,8.24276 -6.2563,10.62544 -0.5508,1.27892 -1.6747,2.99856 -2.4976,3.82143 -0.8228,0.82286 -1.4961,2.13897 -1.4961,2.92469 0,0.78571 -0.45,1.42857 -1,1.42857 -0.55,0 -1,0.71652 -1,1.59227 0,0.87575 -0.9,2.73644 -2,4.13486 -1.1,1.39842 -2,3.1569 -2,3.90773 0,0.75083 -0.4197,1.36514 -0.9326,1.36514 -0.5129,0 -1.2473,0.99151 -1.6319,2.20336 -0.3847,1.21185 -1.315,2.81899 -2.0674,3.57143 -0.7525,0.75244 -1.3681,1.95582 -1.3681,2.67419 0,0.71837 -0.675,1.86633 -1.5,2.55102 -0.825,0.68469 -1.5,2.03469 -1.5,3 0,0.96531 -0.675,2.31531 -1.5,3 -0.825,0.68469 -1.5,2.10391 -1.5,3.15383 0,1.04992 -0.675,2.16796 -1.5,2.48454 -0.825,0.31659 -1.5,1.66659 -1.5,3 0,1.33342 -0.675,2.68342 -1.5,3 -0.825,0.31659 -1.5,1.04067 -1.5,1.60909 0,1.68388 -4.28335,9.75254 -5.17726,9.75254 -0.4525,0 -0.82274,1.09844 -0.82274,2.44098 0,1.34254 -0.41106,2.69504 -0.91348,3.00555 -0.84566,0.52265 -2.17377,3.13779 -6.48071,12.76099 -0.91263,2.03914 -2.09729,3.9782 -2.63257,4.30902 C 978.43796,881.84736 978,883.44148 978,885.05902 978,886.67656 977.58575,888 977.07946,888 c -0.5063,0 -1.2088,1.31241 -1.56111,2.91646 -0.35231,1.60405 -1.28807,3.16493 -2.07946,3.46862 C 972.6475,894.68876 972,895.80542 972,896.86654 972,900.88774 963.60052,913 960.81194,913 959.81537,913 959,913.45 959,914 c 0,0.5999 -3.99499,1 -9.98498,1 -9.40596,0 -10.27579,-0.17894 -15,-3.08577 -2.75826,-1.69718 -5.02933,-3.83468 -5.04682,-4.75 -0.0175,-0.91533 -0.6925,-2.53774 -1.5,-3.60536 -2.01251,-2.66077 -1.99145,-17.3708 0.0318,-22.21311 0.825,-1.97451 1.5,-5.75576 1.5,-8.40278 0,-2.64703 0.52424,-6.07958 1.16497,-7.62788 0.64073,-1.54831 1.5215,-5.5151 1.95726,-8.8151 0.43576,-3.3 1.26662,-9.56003 1.84635,-13.91117 0.57973,-4.35115 1.44884,-8.40115 1.93135,-9 0.48251,-0.59886 1.1967,-3.90214 1.58708,-7.34062 0.39038,-3.43849 1.1155,-6.50255 1.61139,-6.80902 1.02797,-0.63533 1.2449,-5.43919 0.24561,-5.43919 -0.3608,0 -2.3347,1.6875 -4.38646,3.75 -15.71528,15.79758 -67.00235,62.21369 -75.89891,68.69045 -5.02301,3.65679 -16.51063,13.2347 -18.20032,15.17469 -0.90293,1.03667 -1.88795,3.68486 -2.18894,5.88486 -0.80896,5.91293 -3.09284,15.25679 -3.93498,16.09893 -0.40392,0.40392 -0.7344,2.19794 -0.7344,3.9867 0,1.78876 -0.62998,4.52626 -1.39996,6.08333 -2.00638,4.05737 -3.60004,9.57356 -3.60004,12.46091 0,1.36833 -0.66069,3.36138 -1.4682,4.429 -0.8075,1.06762 -1.4825,3.3035 -1.5,4.96862 -0.0175,1.66513 -0.64035,3.91513 -1.38414,5 -0.74379,1.08488 -1.66353,3.97518 -2.04386,6.4229 -0.38034,2.44771 -1.05962,4.92271 -1.50951,5.5 -0.4499,0.57728 -1.10575,3.25421 -1.45745,5.94872 -0.3517,2.69451 -1.0486,5.39451 -1.54866,6 -0.50007,0.60549 -1.22549,2.79336 -1.61206,4.86194 -0.38656,2.06857 -1.10183,4.00763 -1.58948,4.30901 -0.48765,0.30139 -0.88941,1.53392 -0.8928,2.73896 -0.003,1.20504 -0.67839,3.47992 -1.5,5.05528 -0.82161,1.5754 -1.49384,3.5324 -1.49384,4.3489 0,0.8165 -0.64861,2.9025 -1.44136,4.6357 -0.79275,1.7331 -1.92998,5.0446 -2.52718,7.3589 -0.59719,2.3143 -1.52358,4.4783 -2.05863,4.809 -0.53506,0.3307 -0.98714,2.2622 -1.00463,4.2922 -0.0175,2.0301 -0.6925,4.5645 -1.5,5.6321 -0.80751,1.0677 -1.4682,2.7613 -1.4682,3.7636 0,1.7622 -0.37571,2.7573 -2.84387,7.5317 -0.63587,1.2301 -1.15613,3.3125 -1.15613,4.6276 0,1.3151 -0.675,2.9513 -1.5,3.636 -0.825,0.6847 -1.5,2.0745 -1.5,3.0885 0,1.014 -0.73737,3.5464 -1.63861,5.6276 -0.90123,2.0811 -2.07395,4.9089 -2.60603,6.2839 -1.17154,3.0275 -4.56152,10.515 -6.40837,14.1543 -0.74085,1.4599 -1.34699,3.3724 -1.34699,4.25 0,0.8776 -0.42961,1.5957 -0.95469,1.5957 -0.52507,0 -1.24715,1.559 -1.6046,3.4644 -0.35746,1.9054 -1.27785,3.9855 -2.04532,4.6224 -0.76746,0.637 -1.39539,2.1729 -1.39539,3.4132 0,1.2403 -0.675,2.8153 -1.5,3.5 -0.825,0.6847 -1.5,1.6843 -1.5,2.2213 0,1.1332 -3.12185,8.0394 -3.96825,8.7787 -0.31485,0.275 -1.12863,1.625 -1.80839,3 -0.67976,1.375 -2.36589,4.3 -3.74694,6.5 -2.7224,4.3367 -4.47642,8.0847 -4.47642,9.5651 0,0.5142 -0.45,0.9349 -1,0.9349 -0.55,0 -1,0.6121 -1,1.3601 0,0.7481 -1.575,3.0301 -3.5,5.0712 -1.925,2.0411 -3.50055,4.0166 -3.50122,4.3899 -6.7e-4,0.3733 -1.01317,1.9018 -2.25,3.3966 -1.23683,1.4947 -3.59878,4.5702 -5.24878,6.8342 -5.41422,7.4292 -21.54842,21.1036 -29,24.5787 -1.65,0.7695 -3.675,1.8103 -4.5,2.3129 -4.51727,2.7517 -12.49866,4.0564 -24.81545,4.0564 -10.28197,0 -13.19535,-0.3081 -14.18455,-1.5 z m 23.29969,-39.0969 c 0.43983,-0.7717 1.8433,-1.4031 3.11883,-1.4031 3.99399,0 22.82545,-20.8919 24.99612,-27.7311 0.36382,-1.1463 1.31936,-2.3366 2.12343,-2.6451 C 724.34213,1112.3152 725,1111.1345 725,1110 c 0,-1.1345 0.675,-2.3218 1.5,-2.6384 0.825,-0.3166 1.5,-1.1417 1.5,-1.8337 0,-0.692 0.9,-2.4023 2,-3.8008 1.1,-1.3984 2,-3.2216 2,-4.0515 0,-0.8299 0.3375,-1.6589 0.75,-1.8423 0.9144,-0.4064 8.25,-15.1377 8.25,-16.5676 0,-0.5615 0.675,-1.581 1.5,-2.2657 0.825,-0.6847 1.5,-2.5539 1.5,-4.1538 0,-1.6633 0.64235,-3.1555 1.5,-3.4846 0.91224,-0.35 1.5,-1.8632 1.5,-3.8616 0,-1.9984 0.58776,-3.5116 1.5,-3.8616 0.85765,-0.3291 1.5,-1.8213 1.5,-3.4846 0,-1.5999 0.675,-3.4691 1.5,-4.1538 0.825,-0.6847 1.5,-2.2882 1.5,-3.5634 0,-1.2752 0.45,-2.5967 1,-2.9366 0.55,-0.3399 1,-1.6614 1,-2.9366 0,-1.2752 0.675,-2.8787 1.5,-3.5634 0.825,-0.6847 1.5,-2.7097 1.5,-4.5 0,-1.7903 0.675,-3.8153 1.5,-4.5 0.825,-0.6847 1.5,-2.2597 1.5,-3.5 0,-1.2403 0.675,-2.8153 1.5,-3.5 0.825,-0.6847 1.5,-2.7097 1.5,-4.5 0,-1.7903 0.675,-3.8153 1.5,-4.5 0.825,-0.6847 1.5,-2.7097 1.5,-4.5 0,-1.7903 0.675,-3.8153 1.5,-4.5 0.825,-0.6847 1.5,-2.7382 1.5,-4.5634 0,-1.8252 0.45,-3.59668 1,-3.9366 0.55,-0.33992 1.01431,-1.60398 1.0318,-2.80902 0.0175,-1.20504 0.6925,-3.06449 1.5,-4.13211 0.80751,-1.06762 1.4682,-3.88012 1.4682,-6.25 0,-2.36988 0.45,-4.30887 1,-4.30887 0.55,0 1,-1.58912 1,-3.53138 0,-2.21652 0.55851,-3.74571 1.5,-4.10699 0.91554,-0.35133 1.5,-1.8661 1.5,-3.88758 0,-1.82158 0.63225,-4.58594 1.40501,-6.14301 1.7968,-3.62051 5.6094,-17.64997 4.97019,-18.28917 -0.73235,-0.73235 -39.65254,38.44039 -46.1586,46.45813 -3.12411,3.85 -6.64074,7.9 -7.81473,9 -1.17399,1.1 -5.20359,6.05 -8.95466,11 -3.75107,4.95 -7.07443,9.225 -7.38524,9.5 -0.3108,0.275 -2.39227,3.2 -4.62548,6.5 -2.23321,3.3 -5.62299,8.25 -7.53285,11 C 695.54873,1050.5302 684,1070.6249 684,1073.1321 c 0,0.5559 -0.675,1.6858 -1.5,2.5108 -0.825,0.825 -1.5,2.625 -1.5,4 0,1.375 -0.675,3.175 -1.5,4 -0.825,0.825 -1.50277,2.7053 -1.50616,4.1785 -0.003,1.4732 -0.6442,3.9016 -1.42403,5.3965 -0.77983,1.4948 -1.72965,5.2133 -2.11071,8.2632 -0.38107,3.0499 -1.09026,5.7909 -1.57597,6.0911 -1.17829,0.7283 -1.14037,28.1508 0.0399,28.8803 0.50769,0.3137 1.21327,1.8917 1.56796,3.5066 1.02112,4.6492 5.79244,7.0934 12.50898,6.4082 3.16435,-0.3228 5.8396,-1.157 6.29969,-1.9642 z M 308.16923,970.44929 c 3.48192,-0.8529 7.23077,-1.94934 8.33077,-2.43655 11.04566,-4.89228 16.06102,-7.27811 16.48955,-7.84414 0.28075,-0.37082 2.44617,-1.98775 4.81205,-3.59317 8.21474,-5.5743 25.1984,-25.90612 25.1984,-30.16602 0,-0.79703 1.125,-3.23127 2.5,-5.40941 1.375,-2.17814 2.5,-4.3899 2.5,-4.91503 0,-0.52512 0.5335,-2.22157 1.18557,-3.76987 0.65206,-1.54831 1.739,-5.2901 2.41542,-8.3151 0.67643,-3.025 1.74285,-7.3 2.36982,-9.5 1.4117,-4.9535 2.66728,-37.93246 1.42125,-37.33021 -0.49063,0.23715 -3.5551,1.67369 -6.80992,3.19232 -7.18981,3.35461 -27.99844,15.99995 -30.95002,18.80823 -1.17267,1.11574 -4.69171,3.78166 -7.8201,5.92428 -3.12839,2.14262 -5.98582,4.37758 -6.34984,4.96658 -0.36402,0.58899 -2.46784,2.37915 -4.67516,3.97812 -6.9235,5.01536 -14.06404,11.20021 -20.43668,17.70144 -7.77775,7.9347 -19.33504,23.19671 -19.34373,25.54442 -0.004,0.98185 -0.6299,2.78185 -1.39169,4 -2.07856,3.32373 -2.87139,12.12676 -1.5034,16.69272 1.76257,5.88291 5.62889,9.78635 11.88848,12.00262 6.71891,2.3789 11.88133,2.49888 20.16923,0.46877 z m 418.4367,-102.40205 c 6.28883,-2.21035 17.2098,-10.66066 23.05915,-17.84246 3.78788,-4.65075 5.67248,-6.89763 10.11334,-12.05748 C 763.58474,833.72473 764,833.1242 764,832.04221 764,831.46899 764.46114,831 765.02475,831 c 0.56361,0 1.45782,-1.0125 1.98713,-2.25 0.52931,-1.2375 2.96301,-4.95 5.40823,-8.25 2.44522,-3.3 4.47601,-6.7875 4.51287,-7.75 0.0369,-0.9625 0.74202,-1.75 1.56702,-1.75 0.825,0 1.5,-0.86547 1.5,-1.92327 0,-1.05781 1.125,-3.26027 2.5,-4.89436 1.375,-1.6341 2.5,-3.67126 2.5,-4.52704 0,-0.85577 0.5625,-1.91581 1.25,-2.35564 1.5126,-0.96769 4.75,-6.94751 4.75,-8.77374 0,-0.72159 0.675,-1.57099 1.5,-1.88758 0.825,-0.31658 1.5,-1.45222 1.5,-2.52365 0,-1.07143 0.39233,-2.09805 0.87184,-2.28139 0.47951,-0.18333 2.04841,-2.92083 3.48644,-6.08333 1.43804,-3.1625 3.07071,-5.75 3.62816,-5.75 0.55746,0 1.01356,-0.9085 1.01356,-2.0189 0,-1.11039 1.35,-4.54873 3,-7.64076 1.65,-3.09203 3,-6.37252 3,-7.28998 0,-0.91745 0.66069,-2.54161 1.4682,-3.60923 0.8075,-1.06762 1.4825,-2.67353 1.5,-3.56869 0.0175,-0.89515 0.7068,-2.18775 1.5318,-2.87244 0.825,-0.68469 1.5,-2.28823 1.5,-3.56343 0,-1.27519 0.41084,-2.57245 0.91299,-2.88279 0.50214,-0.31034 1.21232,-2.336 1.57817,-4.50145 0.36585,-2.16546 1.30501,-4.4682 2.08701,-5.11721 1.83864,-1.52593 1.80977,-4.96267 -0.072,-8.57081 -0.82161,-1.57537 -1.49661,-4.07525 -1.5,-5.55529 -0.003,-1.48004 -0.45616,-2.9691 -1.00616,-3.30902 -0.55,-0.33992 -1,-1.68433 -1,-2.98759 0,-1.30325 -0.675,-3.04455 -1.5,-3.86955 -0.825,-0.825 -1.5,-2.22127 -1.5,-3.10282 0,-0.88154 -0.675,-1.86183 -1.5,-2.17841 -0.825,-0.31659 -1.50074,-1.08996 -1.50164,-1.71862 C 809.99608,694.0638 802.34382,687 800.63532,687 c -0.76474,0 -1.95063,-0.675 -2.63532,-1.5 -0.91074,-1.09737 -3.32652,-1.5 -9,-1.5 -5.67348,0 -8.08926,0.40263 -9,1.5 -0.68469,0.825 -2.03469,1.5 -3,1.5 -0.96531,0 -2.31531,0.675 -3,1.5 -0.68469,0.825 -2.04164,1.5 -3.01546,1.5 -0.97381,0 -2.02958,0.675 -2.34617,1.5 -0.31658,0.825 -1.31051,1.5 -2.20874,1.5 C 764.46104,693 746,711.67066 746,713.66161 c 0,0.77064 -0.675,1.66018 -1.5,1.97676 -0.825,0.31659 -1.5,1.13272 -1.5,1.81363 0,0.68091 -0.90595,2.0579 -2.01323,3.05997 -1.10728,1.00208 -2.98704,3.77182 -4.17726,6.15499 C 735.6193,729.05013 734.30821,731 733.89599,731 732.97809,731 730,736.81245 730,738.60395 c 0,0.71317 -0.5625,1.65653 -1.25,2.09636 -1.59783,1.02221 -3.78959,4.90899 -4.31933,7.6597 -0.22597,1.17336 -0.86531,2.28487 -1.42076,2.47002 -0.55545,0.18515 -1.00991,1.16699 -1.00991,2.18187 0,1.01489 -0.60593,2.45117 -1.34652,3.19176 -0.74058,0.74058 -1.66097,3.02272 -2.04531,5.07143 -0.38434,2.0487 -1.12841,3.72491 -1.65348,3.72491 -0.52508,0 -0.95746,1.0125 -0.96085,2.25 -0.003,1.2375 -0.67839,3.53894 -1.5,5.11431 -0.82161,1.57537 -1.49384,3.85186 -1.49384,5.05887 0,1.20701 -0.66069,3.06807 -1.4682,4.13569 -0.8075,1.06762 -1.4825,3.37707 -1.5,5.13211 -0.0175,1.75504 -0.44264,3.4449 -0.94479,3.75524 -0.50214,0.31034 -1.23278,2.4571 -1.62364,4.77057 -0.39085,2.31346 -1.08315,4.8986 -1.53843,5.74475 -1.74321,3.2398 -3.20911,16.16886 -3.6058,31.80264 -0.34332,13.53046 -0.1527,16.63536 1.13409,18.47251 0.85072,1.21458 1.54677,3.43564 1.54677,4.93568 0,3.32089 5.04908,11.06735 8.2038,12.58652 3.44223,1.65763 7.23394,1.45629 13.40213,-0.71165 z m 565.74547,-1.52154 c 6.9795,-3.92026 23.6486,-18.81732 23.6486,-21.13452 0,-0.71049 0.5625,-1.65166 1.25,-2.09149 1.3186,-0.84359 7.2905,-8.07986 12.2137,-14.79969 1.6118,-2.2 3.1885,-4.225 3.5038,-4.5 0.3153,-0.275 1.1313,-1.625 1.8135,-3 0.6821,-1.375 2.1288,-3.85 3.2148,-5.5 1.086,-1.65 2.42,-4.0125 2.9646,-5.25 0.5446,-1.2375 1.4512,-2.25 2.0148,-2.25 0.5637,0 1.0248,-0.9 1.0248,-2 0,-1.1 0.4734,-2 1.052,-2 0.5786,0 1.5227,-1.35 2.0978,-3 0.5752,-1.65 1.4518,-3 1.948,-3 0.4962,0 0.9022,-0.87344 0.9022,-1.94098 0,-1.06754 0.4491,-2.21856 0.9981,-2.55782 0.5489,-0.33926 2.1523,-3.05683 3.5631,-6.03904 1.4108,-2.98222 2.9867,-5.68276 3.502,-6.0012 0.5152,-0.31845 0.9368,-1.39734 0.9368,-2.39753 0,-1.0002 0.675,-2.37874 1.5,-3.06343 0.825,-0.68469 1.5,-2.0291 1.5,-2.98759 0,-0.95848 0.9,-2.88686 2,-4.28528 1.1,-1.39842 2,-3.48411 2,-4.63486 0,-1.15075 0.45,-2.09227 1,-2.09227 0.55,0 1,-1.09286 1,-2.42857 0,-1.33572 0.6201,-3.04871 1.3781,-3.80665 0.7579,-0.75794 1.6925,-2.80993 2.0769,-4.55996 0.3844,-1.75004 1.1143,-3.4386 1.6219,-3.75237 0.5077,-0.31377 0.9231,-1.38883 0.9231,-2.38902 0,-1.0002 0.675,-2.37874 1.5,-3.06343 0.825,-0.68469 1.5,-2.70969 1.5,-4.5 0,-1.79031 0.675,-3.81531 1.5,-4.5 0.825,-0.68469 1.5,-2.03469 1.5,-3 0,-0.96531 0.675,-2.31531 1.5,-3 1.9112,-1.58615 1.9136,-4.97831 0.01,-8.63569 -0.8217,-1.57537 -1.4967,-4.27171 -1.5,-5.99187 0,-1.72015 -0.6812,-3.68775 -1.5062,-4.37244 -0.825,-0.68469 -1.5,-2.26664 -1.5,-3.51546 0,-1.24881 -0.675,-2.52958 -1.5,-2.84617 -0.825,-0.31658 -1.5,-1.26472 -1.5,-2.10699 0,-0.84226 -0.7875,-2.36284 -1.75,-3.37907 -0.9625,-1.01623 -2.554,-2.97925 -3.5366,-4.36226 -0.9827,-1.38301 -3.3452,-3.35388 -5.25,-4.37971 -1.9049,-1.02583 -3.4634,-2.21282 -3.4634,-2.63774 0,-0.42493 -3.7699,-0.7726 -8.3776,-0.7726 -6.2267,0 -8.6971,0.3851 -9.6224,1.5 -0.6847,0.825 -2.2248,1.5 -3.4224,1.5 -1.1977,0 -2.6797,0.50212 -3.2934,1.11582 -1.1653,1.16526 -4.3749,3.12525 -7.7842,4.75347 -3.6422,1.73944 -20.5,19.21392 -20.5,21.24986 0,0.53046 -0.937,1.95816 -2.0823,3.17266 -3.2997,3.4992 -12.3903,17.70332 -15.0132,23.45819 -1.316,2.8875 -2.7329,5.25 -3.1486,5.25 -0.4158,0 -0.7559,1.0699 -0.7559,2.37756 0,1.30765 -0.679,2.94109 -1.5089,3.62987 -0.83,0.68877 -1.783,2.96609 -2.118,5.06071 -0.3349,2.09462 -1.2309,4.04705 -1.991,4.33874 -0.7602,0.29169 -1.3821,1.39304 -1.3821,2.44743 0,1.05439 -0.6722,3.20601 -1.4938,4.78138 -0.8217,1.57537 -1.511,3.53931 -1.5318,4.36431 -0.021,0.825 -0.6987,2.37351 -1.5062,3.44113 -0.8075,1.06762 -1.4682,3.79012 -1.4682,6.05 0,2.25988 -0.5038,4.61267 -1.1196,5.22844 -1.1967,1.19677 -2.7428,7.25166 -3.5186,13.78043 -0.2614,2.2 -0.8577,4.9 -1.3251,6 -0.4673,1.1 -1.3224,8.525 -1.9001,16.5 -1.1321,15.62635 0.013,28.996 3.0829,36 1.7394,3.96826 6.3018,8.55195 9.2805,9.32374 3.5385,0.91686 10.6093,-0.4153 14.8514,-2.79804 z m 278.1615,-177.4065 c 0.5429,-1.03445 2.0108,-3.95945 3.2621,-6.5 1.2512,-2.54056 2.7137,-4.6192 3.25,-4.6192 0.5362,0 0.975,-0.64318 0.975,-1.42929 0,-0.7861 1.8,-4.13923 4,-7.4514 2.2,-3.31216 4,-6.28798 4,-6.61292 0,-0.56641 1.0547,-1.96417 3.75,-4.96967 0.6875,-0.76662 1.25,-1.87804 1.25,-2.46982 0,-0.59178 2.025,-3.9731 4.5,-7.51406 2.475,-3.54095 4.5,-6.87939 4.5,-7.41874 0,-0.53936 1.0125,-2.25434 2.25,-3.81108 2.7851,-3.50358 4.75,-6.95835 4.75,-8.35166 0,-0.99335 0.7772,-2.11965 3.75,-5.43464 0.6875,-0.76662 1.25,-2.10101 1.25,-2.96529 0,-0.86429 0.45,-1.57143 1,-1.57143 0.55,0 1,-0.6199 1,-1.37756 0,-0.75765 0.675,-1.93775 1.5,-2.62244 0.825,-0.68469 1.5,-2.02004 1.5,-2.96746 0,-0.94741 0.9,-2.53705 2,-3.53254 1.1,-0.99549 2,-2.42935 2,-3.18637 0,-0.75702 0.675,-1.63542 1.5,-1.952 0.825,-0.31659 1.5,-1.46898 1.5,-2.56089 0,-1.0919 0.9,-3.12945 2,-4.52787 1.1,-1.39842 2,-3.18693 2,-3.97445 0,-0.78753 1.09,-2.86434 2.4221,-4.61514 1.3322,-1.7508 2.7478,-4.53328 3.1459,-6.18328 0.398,-1.65 1.4851,-4.125 2.4156,-5.5 2.7044,-3.99583 8.0164,-15.49959 8.0164,-17.36041 0,-0.9363 0.675,-1.96138 1.5,-2.27796 0.855,-0.32811 1.5,-1.81954 1.5,-3.46862 0,-1.75378 0.4829,-2.79456 1.2263,-2.64301 0.6744,0.1375 1.3938,-0.86228 1.5986,-2.22174 0.2048,-1.35946 1.0029,-3.37208 1.7737,-4.47251 0.7708,-1.10042 1.4014,-2.80063 1.4014,-3.77826 0,-0.97762 0.4296,-1.77749 0.9547,-1.77749 0.5251,0 1.2501,-1.575 1.6113,-3.5 0.3611,-1.925 1.0565,-3.5 1.5453,-3.5 0.4888,0 0.8887,-1.0699 0.8887,-2.37756 0,-1.30765 0.675,-2.93775 1.5,-3.62244 0.825,-0.68469 1.5,-2.12193 1.5,-3.19387 0,-1.07194 0.6559,-2.60487 1.4575,-3.4065 0.8016,-0.80163 1.2022,-2.12296 0.8901,-2.93629 -0.3121,-0.81333 0.157,-2.58447 1.0424,-3.93588 0.8855,-1.3514 1.61,-3.34637 1.61,-4.43326 0,-1.08689 0.45,-2.25428 1,-2.5942 0.55,-0.33992 1,-1.90933 1,-3.48759 0,-1.57825 0.675,-3.54455 1.5,-4.36955 0.8459,-0.84587 1.5,-3.2892 1.5,-5.60282 0,-2.72445 0.5039,-4.29619 1.5,-4.67841 1.0708,-0.41091 1.5,-2.08372 1.5,-5.84617 0,-3.465 0.5139,-5.69704 1.5,-6.51546 1.0158,-0.84305 1.5,-3.1052 1.5,-7.00814 0,-3.16978 0.6722,-7.05218 1.4938,-8.62755 0.8217,-1.57537 1.5412,-5.56431 1.5989,-8.86431 0.058,-3.3 0.4014,-8.475 0.7635,-11.5 0.9108,-7.60897 -1.6503,-20.08745 -4.8139,-23.45502 -2.7369,-2.91329 -6.3022,-3.25978 -10.7436,-1.04412 -4.8652,2.42708 -15.2987,13.30857 -15.2987,15.95558 0,0.84896 -0.4611,1.54356 -1.0248,1.54356 -0.5636,0 -1.4702,1.0125 -2.0148,2.25 -0.5446,1.2375 -1.8505,3.6 -2.9022,5.25 -1.0516,1.65 -1.9449,3.7324 -1.9851,4.62756 -0.04,0.89515 -0.7481,2.18775 -1.5731,2.87244 -0.825,0.68469 -1.5,2.10391 -1.5,3.15383 0,1.04992 -0.675,2.16796 -1.5,2.48454 -0.825,0.31659 -1.5,1.4009 -1.5,2.4096 0,1.0087 -0.45,2.11211 -1,2.45203 -0.55,0.33992 -1,1.44333 -1,2.45203 0,1.0087 -0.675,2.09301 -1.5,2.4096 -0.825,0.31658 -1.5143,1.60222 -1.5318,2.85699 -0.017,1.25476 -0.6925,3.15489 -1.5,4.22251 -0.8075,1.06762 -1.4682,2.75512 -1.4682,3.75 0,0.99488 -0.45,1.80887 -1,1.80887 -0.55,0 -1,0.81399 -1,1.80887 0,0.99488 -0.6607,2.68238 -1.4682,3.75 -0.8075,1.06762 -1.4825,2.89853 -1.5,4.06869 -0.017,1.17015 -0.7068,2.68775 -1.5318,3.37244 -0.825,0.68469 -1.5,2.48469 -1.5,4 0,1.51531 -0.675,3.31531 -1.5,4 -0.825,0.68469 -1.5143,2.20229 -1.5318,3.37244 -0.017,1.17016 -0.6449,2.93597 -1.3942,3.92404 -0.7494,0.98806 -1.1538,2.59449 -0.8987,3.56985 0.2551,0.97536 -0.2425,2.35955 -1.1058,3.07597 -0.8632,0.71642 -1.5695,2.82249 -1.5695,4.68014 0,1.85766 -0.4296,3.37756 -0.9547,3.37756 -0.5251,0 -1.2246,1.6875 -1.5546,3.75 -0.33,2.0625 -1.0254,4.53139 -1.5453,5.48643 -0.52,0.95504 -0.9613,2.75504 -0.9808,4 -0.02,1.24496 -0.6786,3.38857 -1.4646,4.76357 -0.786,1.375 -1.4451,3.65149 -1.4646,5.05887 -0.019,1.40738 -0.6961,3.43238 -1.5036,4.5 -0.8075,1.06762 -1.4825,3.15207 -1.5,4.63211 -0.017,1.48004 -0.4558,2.95303 -0.974,3.27331 -0.5182,0.32028 -1.2452,2.60237 -1.6154,5.07132 -0.3703,2.46894 -1.0713,4.73501 -1.5578,5.0357 -0.4865,0.3007 -0.8846,2.04007 -0.8846,3.86526 0,1.8252 -0.6239,3.83636 -1.3865,4.46926 -0.7626,0.63289 -1.6979,4.05826 -2.0785,7.61192 -0.3806,3.55366 -1.1066,6.7175 -1.6135,7.03075 -0.5068,0.31324 -0.9215,2.0614 -0.9215,3.88479 0,1.82339 -0.675,5.22841 -1.5,7.56671 -0.825,2.3383 -1.5,5.74332 -1.5,7.56671 0,1.82339 -0.4078,3.56732 -0.9063,3.87539 -0.4985,0.30807 -1.2287,2.90417 -1.6227,5.76911 -0.3941,2.86494 -1.0882,5.90194 -1.5425,6.74889 -0.4543,0.84694 -1.1001,3.66691 -1.435,6.26659 -0.335,2.59968 -1.0331,4.98874 -1.5513,5.30902 -0.5182,0.32028 -0.9422,2.73077 -0.9422,5.35664 0,2.62587 -0.3375,5.10953 -0.75,5.51923 -0.8608,0.85498 -2.8495,11.42467 -4.3442,23.08842 -0.5638,4.4 -1.4483,8.4275 -1.9655,8.95 -0.5171,0.5225 -0.9431,2.7725 -0.9465,5 0,2.2275 -0.6783,5.33894 -1.5,6.91431 -0.8216,1.57537 -1.4938,3.26287 -1.4938,3.75 0,1.54573 1.4887,0.95618 2.5129,-0.99511 z m 684.3827,230.44303 c -0.3101,-0.31009 -5.476,-1.05576 -11.4797,-1.65704 -6.0038,-0.60128 -11.3659,-1.43908 -11.9159,-1.86178 -0.55,-0.42269 -3.4411,-1.04349 -6.4246,-1.37954 -2.9836,-0.33606 -5.72,-1.08885 -6.081,-1.67287 -0.3609,-0.58403 -2.4198,-1.33917 -4.5753,-1.67811 -2.1555,-0.33893 -4.279,-1.22298 -4.7188,-1.96456 -0.4398,-0.74158 -2.0792,-1.34833 -3.643,-1.34833 -1.6049,0 -3.094,-0.65333 -3.4189,-1.5 -0.3166,-0.825 -1.6882,-1.5 -3.048,-1.5 -1.3598,0 -2.7789,-0.49592 -3.1535,-1.10203 -0.3746,-0.60612 -2.2011,-1.73716 -4.059,-2.51342 -1.8578,-0.77627 -3.3779,-1.85535 -3.3779,-2.39797 0,-0.54262 -0.674,-0.98658 -1.4977,-0.98658 -0.8237,0 -3.69,-1.575 -6.3694,-3.5 -2.6795,-1.925 -5.3254,-3.5 -5.8799,-3.5 -0.5545,0 -1.6252,-0.74352 -2.3794,-1.65227 -0.7542,-0.90874 -3.8468,-3.45921 -6.8724,-5.6677 -3.0257,-2.2085 -7.4159,-6.07748 -9.756,-8.59774 -2.3402,-2.52026 -5.3777,-5.77938 -6.75,-7.24248 -1.3724,-1.4631 -2.4952,-2.96113 -2.4952,-3.32896 0,-0.36782 -2.25,-3.25564 -5,-6.41738 -2.75,-3.16175 -5,-6.27622 -5,-6.92105 0,-0.64483 -0.4611,-1.17242 -1.0248,-1.17242 -0.5636,0 -1.4829,-1.0125 -2.0429,-2.25 -1.3319,-2.9433 -2.9222,-5.58104 -5.6823,-9.42512 -1.2375,-1.72349 -2.25,-4.09078 -2.25,-5.26064 0,-1.16985 -0.675,-2.38603 -1.5,-2.70261 -0.825,-0.31659 -1.5,-1.37236 -1.5,-2.34617 0,-0.97382 -0.675,-2.33077 -1.5,-3.01546 -0.825,-0.68469 -1.5143,-2.20229 -1.5318,-3.37244 -0.017,-1.17016 -0.6925,-3.00107 -1.5,-4.06869 -0.8075,-1.06762 -1.4825,-2.86762 -1.5,-4 -0.017,-1.13238 -0.6925,-2.93238 -1.5,-4 -0.8075,-1.06762 -1.4682,-3.17856 -1.4682,-4.69098 0,-1.51242 -0.45,-3.02797 -1,-3.36789 -0.55,-0.33992 -0.9935,-1.37898 -0.9855,-2.30902 0.01,-0.93004 -0.9275,-4.84098 -2.0789,-8.69098 -1.1513,-3.85 -2.5079,-8.38195 -3.0145,-10.071 -0.5066,-1.68905 -0.9211,-5.34497 -0.9211,-8.12427 0,-2.7793 -0.675,-6.96643 -1.5,-9.30473 -2.1814,-6.18263 -2.1901,-63.40718 -0.011,-70.59107 0.819,-2.69991 1.5008,-6.70893 1.515,-8.90893 0.014,-2.2 0.6744,-5.8 1.467,-8 0.7925,-2.2 1.4608,-5.6324 1.4849,-7.62756 0.024,-2.02384 0.7355,-4.20149 1.6082,-4.92579 0.9421,-0.78189 1.3484,-2.15836 1.0215,-3.46076 -0.2985,-1.18938 0.1083,-3.02277 0.9039,-4.0742 0.7957,-1.05143 1.461,-3.09409 1.4785,-4.53925 0.018,-1.44515 0.7068,-3.18775 1.5318,-3.87244 0.825,-0.68469 1.5,-2.50332 1.5,-4.04141 0,-2.74459 2.774,-9.13594 4.25,-9.79192 0.4125,-0.18334 0.75,-1.43496 0.75,-2.78139 0,-1.34643 0.675,-2.70707 1.5,-3.02365 0.825,-0.31659 1.5,-1.42746 1.5,-2.46862 0,-1.04115 0.45,-1.89301 1,-1.89301 0.55,0 1,-1.09844 1,-2.44098 0,-1.34254 0.4778,-2.73626 1.0617,-3.09714 0.5839,-0.36089 1.4828,-1.62495 1.9976,-2.80902 1.2981,-2.98589 2.909,-5.47095 6.6907,-10.32116 1.7875,-2.29256 3.25,-4.88006 3.25,-5.75 0,-0.86993 0.45,-1.5817 1,-1.5817 0.55,0 1,-0.54817 1,-1.21816 0,-0.66999 1.2375,-2.27308 2.75,-3.56242 1.5125,-1.28933 8.0198,-7.49116 14.4607,-13.78183 C 2165.6514,572.14691 2171.421,567 2172.0319,567 c 0.6109,0 1.738,-0.5625 2.5046,-1.25 2.9971,-2.68774 4.4026,-3.75 4.9616,-3.75 0.8443,0 6.9411,-4.36374 7.335,-5.25 0.1834,-0.4125 1.1408,-0.75 2.1276,-0.75 0.9868,0 2.3544,-0.675 3.0391,-1.5 0.6847,-0.825 2.0898,-1.5 3.1224,-1.5 1.0327,0 1.8776,-0.45 1.8776,-1 0,-0.55 0.8449,-1 1.8776,-1 1.0326,0 2.4377,-0.675 3.1224,-1.5 0.6847,-0.825 2.4538,-1.5 3.9313,-1.5 1.4775,0 3.5599,-0.66069 4.6276,-1.4682 1.0676,-0.8075 3.1305,-1.4825 4.5841,-1.5 1.4537,-0.0175 2.902,-0.7068 3.2186,-1.5318 0.39,-1.01631 1.9831,-1.5 4.9403,-1.5 2.4006,0 4.7,-0.3375 5.1097,-0.75 1.2512,-1.25979 14.3734,-3.33089 28.3384,-4.47272 17.547,-1.4347 48.6835,0.99317 54.4864,4.24859 0.9551,0.53577 2.9801,0.9769 4.5,0.98029 1.52,0.003 4.0525,0.67839 5.6279,1.5 1.5754,0.82161 3.8254,1.50979 5,1.52928 1.1746,0.0195 3.2607,0.67854 4.6357,1.46456 1.375,0.78602 3.4644,1.44508 4.643,1.46456 1.1787,0.0195 2.402,0.71044 2.7186,1.53544 0.3166,0.825 1.1956,1.5 1.9534,1.5 1.7444,0 7.4573,2.82259 8.2241,4.06332 0.3184,0.51518 1.4665,0.93668 2.5513,0.93668 1.0848,0 2.2314,0.675 2.548,1.5 0.3166,0.825 1.0096,1.5 1.54,1.5 0.5305,0 1.5917,0.5625 2.3583,1.25 2.6565,2.3823 6.8155,5.22689 9.419,6.4423 4.5851,2.14044 29.7921,26.95406 31.55,31.0577 0.7657,1.7875 1.8652,3.25 2.4433,3.25 0.578,0 1.051,0.52002 1.051,1.15561 0,0.63558 1.125,2.63056 2.5,4.43328 1.375,1.80272 2.5,3.99681 2.5,4.87577 0,0.87896 0.6579,1.85056 1.4619,2.15911 0.8041,0.30854 1.7635,1.51093 2.132,2.67197 0.3685,1.16104 1.2856,2.72661 2.038,3.47905 0.7525,0.75244 1.3681,2.36092 1.3681,3.5744 0,1.21348 0.9,2.97693 2,3.91878 1.1,0.94185 2,2.56871 2,3.61525 0,1.04654 0.675,2.16182 1.5,2.47841 0.825,0.31658 1.5,1.71472 1.5,3.10699 0,1.39226 0.45,2.53138 1,2.53138 0.55,0 1,1.03899 1,2.30887 0,1.26988 0.6607,3.18238 1.4682,4.25 0.8075,1.06762 1.4825,3.43577 1.5,5.26256 0.018,1.82678 0.7068,3.99643 1.5318,4.82143 0.825,0.825 1.5,2.7629 1.5,4.30644 0,1.54355 0.675,4.42195 1.5,6.39646 0.825,1.9745 1.5,5.32946 1.5,7.45545 0,2.126 0.3375,4.20122 0.75,4.6116 1.94,1.92999 3.4703,20.2882 3.8983,46.76259 0.3783,23.41116 0.1778,30.05822 -1.0924,36.20785 -0.8558,4.14284 -1.5702,9.4639 -1.5877,11.82459 -0.017,2.36069 -0.6925,5.16567 -1.5,6.23329 -0.8075,1.06762 -1.4682,3.82868 -1.4682,6.13569 0,2.30701 -0.6722,5.4835 -1.4938,7.05887 -0.8217,1.57537 -1.511,3.98931 -1.5318,5.36431 -0.021,1.375 -0.6987,3.37351 -1.5062,4.44113 -0.8075,1.06762 -1.4682,3.20512 -1.4682,4.75 0,1.54488 -0.45,2.80887 -1,2.80887 -0.55,0 -1.0143,1.2375 -1.0318,2.75 -0.017,1.5125 -0.6925,3.62351 -1.5,4.69113 -0.8075,1.06762 -1.4682,2.98012 -1.4682,4.25 0,1.26988 -0.45,2.30887 -1,2.30887 -0.55,0 -1,0.8449 -1,1.87756 0,1.03265 -0.675,2.43775 -1.5,3.12244 -0.825,0.68469 -1.5,2.31479 -1.5,3.62244 0,1.30766 -0.3657,2.37756 -0.8126,2.37756 -0.4469,0 -1.7951,2.25 -2.9958,5 -1.2008,2.75 -2.6351,5 -3.1874,5 -0.5523,0 -1.0042,0.675 -1.0042,1.5 0,0.825 -0.45,1.5 -1,1.5 -0.55,0 -1,0.51615 -1,1.14701 0,1.01627 -2.7941,4.73908 -8.6384,11.50972 -1.0239,1.1862 -2.5366,3.17293 -3.3616,4.41495 -3.7316,5.61793 -25.7148,25.09504 -29.75,26.35856 -1.2375,0.3875 -2.25,1.13535 -2.25,1.6619 0,0.52655 -1.125,1.38509 -2.5,1.90786 -1.375,0.52277 -2.5,1.41164 -2.5,1.97525 0,0.56361 -0.8734,1.02475 -1.941,1.02475 -1.0675,0 -2.195,0.41106 -2.5055,0.91348 -0.6233,1.00853 -7.7711,4.52525 -11.3035,5.56134 -1.2375,0.36298 -2.25,1.07963 -2.25,1.59257 0,0.51293 -1.2375,0.94262 -2.75,0.95485 -1.5125,0.0122 -3.875,0.90222 -5.25,1.97776 -1.375,1.07554 -3.4,1.9808 -4.5,2.0117 -1.1,0.0309 -3.8,0.92562 -6,1.9883 -2.2,1.06268 -5.2671,1.94741 -6.8157,1.96607 -1.5487,0.0187 -3.7987,0.58925 -5,1.26798 -1.2014,0.67872 -6.0093,1.60168 -10.6843,2.05101 -11.2286,1.07922 -41.3876,1.99404 -42.1044,1.27717 z M 2288.7514,846.25 c 0.2284,-0.6875 1.7723,-1.25 3.4308,-1.25 3.1124,0 5.3607,-0.84881 17.353,-6.5515 7.3349,-3.48793 9.4122,-4.98646 17.2564,-12.4485 4.2796,-4.0711 11.2084,-13.17154 11.2084,-14.72139 0,-0.34162 0.6293,-1.33156 1.3985,-2.19987 2.1667,-2.44585 5.6015,-8.97064 5.6015,-10.64054 0,-0.82553 0.675,-1.75999 1.5,-2.07657 0.825,-0.31659 1.5,-1.6259 1.5,-2.9096 0,-1.2837 0.45,-2.61211 1,-2.95203 0.55,-0.33992 1,-1.9556 1,-3.5904 0,-1.71962 0.6322,-3.21497 1.5,-3.54797 1.0339,-0.39676 1.5019,-2.01825 1.5062,-5.21862 0,-2.55365 0.6783,-5.93195 1.5,-7.50732 0.8216,-1.57537 1.4944,-4.95037 1.4952,-7.5 7e-4,-2.54963 0.6751,-8.46069 1.4986,-13.13569 1.6847,-9.56402 1.8845,-33.07756 0.3612,-42.5 -0.5335,-3.3 -1.283,-9.46578 -1.6656,-13.70174 -0.3826,-4.23596 -1.2581,-8.26346 -1.9456,-8.95 -0.6875,-0.68654 -1.25,-3.35316 -1.25,-5.92582 0,-2.93787 -0.5579,-5.14055 -1.5,-5.92244 -0.825,-0.68469 -1.5,-2.70969 -1.5,-4.5 0,-1.79031 -0.675,-3.81531 -1.5,-4.5 -0.825,-0.68469 -1.5,-2.51323 -1.5,-4.06343 0,-1.55019 -0.45,-3.09665 -1,-3.43657 -0.55,-0.33992 -1,-1.49148 -1,-2.55902 0,-1.06754 -0.45,-1.94098 -1,-1.94098 -0.55,0 -1,-0.68912 -1,-1.53138 0,-0.84227 -0.6344,-1.77483 -1.4098,-2.07236 -0.7753,-0.29754 -1.6707,-1.58089 -1.9897,-2.8519 -0.319,-1.271 -1.9346,-3.76103 -3.5903,-5.53339 -1.6556,-1.77237 -3.0102,-3.84989 -3.0102,-4.61673 0,-0.76683 -0.3375,-1.39715 -0.75,-1.40071 -0.4125,-0.004 -3.3583,-2.47855 -6.5462,-5.5 -3.1878,-3.02144 -6.0612,-5.49353 -6.3853,-5.49353 -0.324,0 -1.6318,-1.125 -2.9061,-2.5 -1.2743,-1.375 -3.0275,-2.5 -3.896,-2.5 -0.8686,0 -1.8382,-0.675 -2.1548,-1.5 -0.3166,-0.825 -1.3723,-1.5 -2.3461,-1.5 -0.9739,0 -2.3308,-0.675 -3.0155,-1.5 -0.6847,-0.825 -2.2023,-1.50196 -3.3724,-1.50436 -1.1702,-0.002 -5.2776,-1.14756 -9.1276,-2.54482 -6.3807,-2.3157 -8.3179,-2.53243 -21.8965,-2.44971 -11.2977,0.0688 -15.3981,0.44204 -16.9725,1.54482 -1.1418,0.79974 -3.4064,1.45407 -5.0325,1.45407 -3.0399,0 -7.7154,1.28932 -13.2496,3.65373 -1.7332,0.74045 -3.6457,1.34627 -4.25,1.34627 -0.6044,0 -1.0989,0.45 -1.0989,1 0,0.55 -0.9,1 -2,1 -1.1111,0 -2,0.66667 -2,1.5 0,0.825 -0.45,1.55625 -1,1.625 -0.55,0.0688 -1.3375,0.18766 -1.75,0.26424 -1.5818,0.29365 -6.877,5.18638 -14.75,13.6288 -4.9767,5.33668 -6.4928,7.44593 -8.4323,11.73196 -0.56,1.2375 -1.4793,2.25 -2.0429,2.25 -0.5637,0 -1.0248,1.33417 -1.0248,2.96482 0,1.89949 -0.6894,3.33379 -1.9187,3.99168 -1.0553,0.56478 -2.2149,2.37545 -2.577,4.02372 -0.362,1.64826 -1.0736,3.25356 -1.5812,3.56733 -0.5077,0.31377 -0.9231,1.7938 -0.9231,3.28896 0,1.49516 -0.6186,3.60611 -1.3747,4.69098 -0.756,1.08488 -1.7069,3.99751 -2.113,6.47251 -0.4061,2.475 -1.0889,4.95 -1.5172,5.5 -0.4283,0.55 -1.0165,4.375 -1.3071,8.5 -0.2906,4.125 -0.9673,9.48608 -1.5038,11.91352 -1.3739,6.21634 -1.4972,47.73851 -0.1546,52.08648 0.5944,1.925 1.5213,6.875 2.0599,11 1.8299,14.01684 2.1265,15.49921 3.4005,17 0.7004,0.825 1.5948,2.625 1.9875,4 0.3927,1.375 2.021,5.23556 3.6183,8.57903 1.5973,3.34346 2.9042,6.60596 2.9042,7.25 0,0.64403 0.45,1.17097 1,1.17097 0.55,0 1,0.88247 1,1.96104 0,1.07858 0.8029,2.76608 1.7843,3.75 0.9813,0.98393 3.1188,3.78655 4.75,6.22806 5.002,7.48696 18.4395,20.0609 21.4387,20.0609 0.4863,0 1.4993,0.5625 2.2512,1.25 2.2182,2.02828 7.796,4.75 9.7344,4.75 0.9881,0 2.3567,0.675 3.0414,1.5 0.7284,0.87768 2.9573,1.51319 5.3724,1.5318 2.2702,0.0175 5.0276,0.71724 6.1276,1.55499 1.6489,1.25577 4.9701,1.46963 18.9181,1.21819 12.423,-0.22395 17.0284,-0.6371 17.3333,-1.55498 z M 1787.5,914.24152 C 1786.8365,913.74949 1786.6682,851.08732 1787,728 l 0.5,-185.5 84.2887,-0.25569 c 73.4505,-0.22281 84.663,-0.0621 87.2003,1.25 1.6014,0.82813 5.3539,1.50569 8.3389,1.50569 3.6042,0 5.8454,0.50384 6.6721,1.5 0.6847,0.825 2.4884,1.5 4.0081,1.5 1.5198,0 4.0522,0.67223 5.6276,1.49384 1.5754,0.82161 3.8768,1.49661 5.1143,1.5 1.2375,0.003 2.25,0.41894 2.25,0.92345 0,0.50451 2.025,1.69065 4.5,2.63586 2.475,0.94521 4.5,2.06341 4.5,2.48488 0,0.42148 1.2375,1.21155 2.75,1.75571 1.5125,0.54417 3.7437,1.93819 4.9582,3.09783 1.2145,1.15964 2.5236,2.10843 2.9091,2.10843 1.3447,0 11.9058,8.44036 14.8827,11.89412 1.65,1.91429 4.0125,4.46034 5.25,5.65788 1.2375,1.19754 2.25,2.5889 2.25,3.09191 0,0.50302 0.9,1.56325 2,2.35609 1.1,0.79284 2,1.93797 2,2.54474 0,0.60677 1.575,3.31849 3.5,6.02604 1.925,2.70755 3.5,5.4503 3.5,6.09498 0,1.47998 3.2482,7.72233 4.25,8.16757 0.4125,0.18334 0.7528,1.08334 0.7562,2 0,0.91667 0.6783,2.95561 1.5,4.53098 0.8216,1.57537 1.5097,4.05037 1.5292,5.5 0.019,1.44963 0.6786,3.76069 1.4646,5.13569 0.786,1.375 1.4451,4.61094 1.4646,7.19098 0.02,2.58004 0.4854,4.9691 1.0354,5.30902 0.6174,0.38156 1,8.99071 1,22.5 0,13.50929 -0.3826,22.11844 -1,22.5 -0.55,0.33992 -1,2.66858 -1,5.1748 0,2.50623 -0.7231,6.86717 -1.607,9.69099 -0.8838,2.82381 -2.0563,6.70921 -2.6056,8.63421 -1.3266,4.64943 -5.9994,14 -6.9963,14 -0.4351,0 -0.7911,0.92441 -0.7911,2.05423 0,1.12983 -1.3479,3.49233 -2.9954,5.25 -1.6474,1.75768 -2.9974,3.7931 -3,4.52317 -0.01,1.57892 -19.1972,20.9441 -23.5046,23.71704 -5.5614,3.58024 -6.9903,4.38955 -9.75,5.52237 -1.5125,0.62086 -2.75,1.48233 -2.75,1.91438 0,0.43205 -0.9,1.0209 -2,1.30856 -2.3676,0.61914 -2.6567,3.92037 -0.5,5.71025 0.825,0.68469 1.5,1.82832 1.5,2.54141 0,1.39751 3.0692,7.62905 4.1707,8.46785 0.3689,0.28093 1.0073,1.85181 1.4187,3.49085 0.4114,1.63905 1.347,3.57918 2.0793,4.31142 0.7322,0.73223 1.3313,2.14408 1.3313,3.13745 0,0.99337 0.675,2.36633 1.5,3.05102 0.825,0.68469 1.5,2.08979 1.5,3.12244 0,1.03266 0.3822,1.87756 0.8493,1.87756 0.4671,0 1.6844,2.025 2.705,4.5 1.0207,2.475 2.2135,4.5 2.6507,4.5 0.4373,0 0.795,0.8449 0.795,1.87756 0,1.03265 0.675,2.43775 1.5,3.12244 0.825,0.68469 1.5,2.31479 1.5,3.62244 0,1.44672 0.5873,2.37756 1.5,2.37756 0.9127,0 1.5,0.93084 1.5,2.37756 0,1.30765 0.675,2.93775 1.5,3.62244 0.825,0.68469 1.5,2.03469 1.5,3 0,0.96531 0.675,2.31531 1.5,3 0.825,0.68469 1.5,2.10391 1.5,3.15383 0,1.04992 0.675,2.16796 1.5,2.48454 0.825,0.31659 1.5,1.37236 1.5,2.34617 0,0.97382 0.675,2.33077 1.5,3.01546 0.825,0.68469 1.5,1.79401 1.5,2.46516 0,0.67115 1.1192,3.20355 2.4871,5.62756 1.3679,2.424 2.7503,5.08228 3.0721,5.90728 0.3218,0.825 1.0055,2.175 1.5193,3 0.5138,0.825 1.1888,2.175 1.5,3 0.3112,0.825 0.9751,2.175 1.4753,3 0.5002,0.825 2.0614,3.75 3.4693,6.5 1.4079,2.75 2.9273,5.675 3.3763,6.5 3.0373,5.58013 4.1006,7.9971 4.1006,9.32096 0,0.8318 0.3375,1.66237 0.75,1.84571 0.4125,0.18333 2.0014,2.92083 3.5308,6.08333 1.5295,3.1625 3.2084,5.75 3.731,5.75 0.5225,0 1.2278,1.10654 1.5673,2.45898 0.3394,1.35244 1.248,2.98254 2.019,3.62245 0.7711,0.6399 1.4019,2.00836 1.4019,3.04101 0,1.80731 -1.5912,1.87756 -42.5314,1.87756 -39.5944,0 -42.5758,-0.12085 -43.1746,-1.75 -0.3537,-0.9625 -1.2396,-2.10986 -1.9686,-2.54969 -0.729,-0.43983 -1.3254,-1.84723 -1.3254,-3.12756 0,-1.28032 -0.675,-2.88806 -1.5,-3.57275 -0.825,-0.68469 -1.5,-2.03469 -1.5,-3 0,-0.96531 -0.675,-2.31531 -1.5,-3 -0.825,-0.68469 -1.5,-1.72271 -1.5,-2.30672 0,-1.51912 -3.9987,-9.57443 -5.0865,-10.24675 -0.5024,-0.31051 -0.9135,-1.38291 -0.9135,-2.3831 0,-1.0002 -0.6461,-2.35473 -1.4357,-3.01008 -0.7897,-0.65535 -1.7254,-2.51045 -2.0795,-4.12245 -0.354,-1.61199 -1.0494,-2.9309 -1.5452,-2.9309 -0.4958,0 -1.1792,-1.10654 -1.5187,-2.45898 -0.3394,-1.35244 -1.248,-2.98254 -2.019,-3.62245 -0.7711,-0.6399 -1.4019,-2.23336 -1.4019,-3.54101 0,-1.30766 -0.45,-2.37756 -1,-2.37756 -0.55,0 -1,-0.83931 -1,-1.86514 0,-1.02583 -0.8179,-2.93833 -1.8175,-4.25 -0.9995,-1.31167 -2.398,-3.83244 -3.1075,-5.6017 -0.7096,-1.76927 -1.9168,-3.73687 -2.6826,-4.37245 -0.7658,-0.63558 -1.3924,-2.0005 -1.3924,-3.03315 0,-1.03266 -0.45,-1.87756 -1,-1.87756 -0.55,0 -1.0153,-0.5625 -1.0339,-1.25 -0.019,-0.6875 -0.9034,-3.05 -1.9661,-5.25 -1.0627,-2.2 -1.9474,-4.5625 -1.9661,-5.25 -0.019,-0.6875 -0.4481,-1.25 -0.9544,-1.25 -0.5063,0 -1.2088,-1.31241 -1.5612,-2.91646 -0.3523,-1.60405 -1.288,-3.16493 -2.0794,-3.46862 -0.7914,-0.30368 -1.4389,-1.41117 -1.4389,-2.46109 0,-1.04992 -0.675,-2.46914 -1.5,-3.15383 -0.825,-0.68469 -1.5,-2.05765 -1.5,-3.05102 0,-0.99337 -0.675,-2.48112 -1.5,-3.30612 -0.825,-0.825 -1.5,-2.44627 -1.5,-3.60282 0,-1.15654 -0.6344,-2.34625 -1.4098,-2.64378 -0.7753,-0.29754 -1.7066,-1.74591 -2.0694,-3.21862 -0.3628,-1.4727 -2.4583,-6.39014 -4.6568,-10.92764 l -3.9971,-8.25 -26.1835,0.0153 c -14.4009,0.008 -26.7427,0.37048 -27.4262,0.80457 -0.9657,0.6133 -1.3001,15.60257 -1.5,67.23469 L 1863.5,914.5 1826,914.74152 c -20.625,0.13284 -37.95,-0.0922 -38.5,-0.5 z m 152.7993,-201.51854 c 4.8396,-1.33185 9.3171,-2.93937 9.95,-3.57227 0.6329,-0.63289 1.7834,-1.15071 2.5568,-1.15071 4.2391,0 18.1435,-14.17767 20.5977,-21.00258 0.9884,-2.74858 2.1584,-4.99742 2.6001,-4.99742 1.9769,0 3.0933,-26.68064 1.5273,-36.5 -0.4386,-2.75 -1.6,-5.77004 -2.5809,-6.71119 -1.0708,-1.02745 -1.5703,-2.52583 -1.2502,-3.75 0.3015,-1.15282 0.048,-2.03881 -0.5835,-2.03881 -0.6141,0 -1.1166,-0.62686 -1.1166,-1.39301 0,-0.76616 -0.675,-1.65203 -1.5,-1.96862 -0.825,-0.31658 -1.5,-1.26472 -1.5,-2.10699 0,-0.84226 -0.3375,-1.53155 -0.75,-1.53176 -0.4125,-2.1e-4 -3.4302,-2.47521 -6.7059,-5.5 -3.2757,-3.02479 -6.7632,-5.49962 -7.75,-5.49962 -0.9868,0 -1.7941,-0.45 -1.7941,-1 0,-0.55 -0.9223,-1 -2.0497,-1 -1.1273,0 -3.366,-0.68072 -4.9749,-1.51271 -1.6089,-0.83199 -5.6505,-1.79756 -8.9814,-2.1457 -3.3308,-0.34814 -6.2937,-1.01742 -6.584,-1.48729 -0.2904,-0.46986 -14.9156,-0.8543 -32.5004,-0.8543 -24.666,0 -32.0774,0.28565 -32.4321,1.25 -0.2529,0.6875 -0.5763,24.97631 -0.7187,53.97513 -0.2265,46.1441 -0.072,52.78356 1.2412,53.19329 0.825,0.25748 16.125,0.3012 34,0.0971 30.6693,-0.35012 32.9957,-0.50743 41.2993,-2.79258 z m 551.1674,201.03907 C 2491.2028,913.06792 2491.1023,829.25 2491.2434,727.5 l 0.2566,-185 36,-0.27878 c 19.8,-0.15333 37.0137,-0.032 38.2526,0.26971 l 2.2527,0.5485 -0.2527,185.73028 L 2567.5,914.5 l -37.7768,0.26205 c -29.6866,0.20593 -37.8795,-0.008 -38.2565,-1 z M 595.5,606.31454 C 587.62551,604.5322 579.81715,598.43573 576.1659,591.21921 573.45671,585.86464 573.02336,572.05543 575.5,570 c 0.825,-0.68469 1.5,-1.87521 1.5,-2.64559 0,-2.15724 7.33487,-13.28435 8.78138,-13.3215 0.70477,-0.0181 1.54122,-0.71003 1.8588,-1.53762 0.31758,-0.82759 2.21595,-2.21542 4.21862,-3.08407 2.00266,-0.86864 4.40189,-1.9786 5.33163,-2.46656 3.768,-1.9776 21.80957,-1.03187 21.80957,1.14324 0,0.50165 0.7875,0.93083 1.75,0.95373 2.94337,0.07 8.7563,6.14336 11.70938,12.23395 2.51645,5.19005 2.75106,6.5437 2.31411,13.35222 -0.26743,4.16715 -0.88837,7.86814 -1.37986,8.22442 -0.4915,0.35628 -2.49443,3.74469 -4.45097,7.52981 -2.8233,5.46196 -4.42037,7.34364 -7.73983,9.11912 -2.30037,1.2304 -4.74957,2.68734 -5.44266,3.23765 -2.9284,2.32511 -15.77128,4.59177 -20.26017,3.57574 z"
       id="path1" />
  </g>
</svg>
