<?xml version="1.0" encoding="UTF-8" standalone="no"?>
<!-- Created with Inkscape (http://www.inkscape.org/) -->

<svg
   version="1.1"
   id="svg1"
   width="2423.8569"
   height="826.57318"
   viewBox="0 0 2423.857 826.57318"
   sodipodi:docname="signalroi.svg"
   inkscape:version="1.3.2 (091e20e, 2023-11-25)"
   xml:space="preserve"
   xmlns:inkscape="http://www.inkscape.org/namespaces/inkscape"
   xmlns:sodipodi="http://sodipodi.sourceforge.net/DTD/sodipodi-0.dtd"
   xmlns="http://www.w3.org/2000/svg"
   xmlns:svg="http://www.w3.org/2000/svg"><defs
     id="defs1" /><sodipodi:namedview
     id="namedview1"
     pagecolor="#ffffff"
     bordercolor="#000000"
     borderopacity="0.25"
     inkscape:showpageshadow="2"
     inkscape:pageopacity="0.0"
     inkscape:pagecheckerboard="0"
     inkscape:deskcolor="#d1d1d1"
     showgrid="false"
     inkscape:zoom="0.126536"
     inkscape:cx="932.54094"
     inkscape:cy="663.8427"
     inkscape:window-width="1368"
     inkscape:window-height="747"
     inkscape:window-x="72"
     inkscape:window-y="34"
     inkscape:window-maximized="0"
     inkscape:current-layer="g1" /><g
     inkscape:groupmode="layer"
     inkscape:label="Image"
     id="g1"
     transform="translate(-130.02797,-436.53715)"><path
       style="fill:#1a1a1a"
       d="m 659.50464,1261.9838 c -7.24534,-1.9564 -10.32869,-3.3282 -16.5,-7.3406 -14.67686,-9.5425 -21.50788,-20.6325 -26.04605,-42.2849 -1.47886,-7.0558 -0.69519,-31.9224 1.32363,-42 1.53152,-7.6451 6.57678,-23.8805 9.24499,-29.75 0.81259,-1.7875 2.10887,-4.7125 2.88062,-6.5 6.22206,-14.4112 6.4221,-14.7763 22.05385,-40.25 4.59899,-7.4945 11.44593,-17.4415 15.46775,-22.4709 1.96637,-2.4589 4.10224,-5.1589 4.74638,-6 17.32791,-22.6237 70.85094,-75.87224 103.17034,-102.64094 2.00691,-1.6623 3.11099,-4.43 5.1858,-13 1.44982,-5.9885 2.47096,-11.0915 2.26919,-11.34 -0.41171,-0.5071 -3.06012,2.3136 -8.41345,8.9607 -5.33256,6.6214 -13.70056,15.0944 -19.38305,19.6262 -7.56466,6.033 -18.44084,13.3649 -19.8254,13.3649 -0.67627,0 -2.11721,0.6209 -3.20209,1.3796 -1.77081,1.2385 -7.00156,2.8438 -18.97251,5.8224 -7.00794,1.7437 -21.01403,0.233 -30,-3.236 -4.4,-1.6985 -9.50835,-3.9726 -11.35189,-5.0535 -14.72637,-8.6342 -28.66862,-29.0507 -29.58902,-43.3291 -0.13362,-2.0729 -2.22348,-1.4215 -3.75448,1.1703 -3.2875,5.5653 -27.22948,27.9592 -37.55509,35.1269 -6.1723,4.2845 -17.90376,9.9234 -26.3127,12.6476 -11.13477,3.6071 -26.87349,3.841 -36.88715,0.5482 -25.84522,-8.4989 -38.92148,-32.6619 -39.00533,-72.0764 -0.0247,-11.6056 1.19758,-21.1869 4.90065,-38.4158 0.58112,-2.7038 0.87195,-5.1006 0.64628,-5.3262 -0.22567,-0.2257 -3.705,0.974 -7.73185,2.6659 -4.02685,1.6919 -7.79782,3.0761 -8.37993,3.0761 -0.58211,0 -4.13367,1.6035 -7.89235,3.5633 -3.75868,1.9598 -9.04958,4.4365 -11.75755,5.5039 -2.70797,1.0674 -9.28993,3.9207 -14.62658,6.3407 -18.82259,8.5355 -21.27159,9.5921 -22.23264,9.5921 -1.21277,0 -1.19409,1.4229 0.0853,6.5 1.53729,6.1005 3.90121,29.949 3.91533,39.5 0.0412,27.8619 -7.87073,58.69944 -21.05635,82.06914 -7.60343,13.4761 -11.84165,19.314 -22.97368,31.6448 -9.12186,10.1042 -26.88598,24.0624 -37.69099,29.6158 -7.60158,3.9069 -8.97183,4.5775 -13.28429,6.5012 -16.1984,7.2257 -30.51773,9.6752 -56.4657,9.6593 -23.4573,-0.014 -34.55927,-2.3964 -50.25648,-10.7833 -24.67263,-13.1824 -38.44974,-36.4602 -38.32243,-64.7496 0.0969,-21.5321 6.01342,-37.93274 22.16858,-61.45144 15.28427,-22.2508 41.89897,-45.5059 83.41033,-72.8813 11.49004,-7.5773 38.25915,-23.6246 39.40918,-23.6246 3.20401,0 -0.0311,-9.2769 -6.97444,-20 -1.60261,-2.475 -3.81287,-6.3 -4.91168,-8.5 -1.09882,-2.2 -2.43523,-4.675 -2.96981,-5.5 -1.19385,-1.8424 -7.4281,-13.1443 -17.0999,-31 -4.02187,-7.425 -8.32916,-15.3 -9.57177,-17.5 -3.06527,-5.4269 -6.89716,-13.4056 -11.04607,-23 -1.90272,-4.4 -3.82965,-8.3755 -4.28207,-8.8345 -0.45242,-0.459 -1.48552,0.441 -2.29577,2 -2.96773,5.7102 -10.98354,19.0892 -17.27573,28.8345 -3.55115,5.5 -6.94049,11.1159 -7.53185,12.4797 -0.59137,1.3638 -1.39372,2.7138 -1.78301,3 -0.38929,0.2862 -1.26484,1.6453 -1.94569,3.0203 -1.15265,2.3279 -4.43217,7.5396 -19.66409,31.2496 -11.40736,17.7567 -27.83945,42.2863 -31.43446,46.925 -7.27196,9.383 -8.11777,10.4049 -12.33305,14.9013 -8.28758,8.8402 -15.0708,11.8865 -26.51879,11.9096 -20.21173,0.041 -33.32959,-11.5396 -33.24727,-29.3503 0.0305,-6.6042 3.12073,-14.075 10.5925,-25.6083 3.23607,-4.9952 11.73377,-18.0595 18.88377,-29.0318 38.06661,-58.4168 38.6006,-59.2548 54.79519,-85.9951 7.07504,-11.6821 11.78882,-19.719 16.05877,-27.3797 1.56966,-2.8161 5.90273,-10.2953 9.62903,-16.6203 3.7263,-6.325 8.71282,-15.775 11.08116,-21 2.36833,-5.225 4.86271,-10.175 5.54305,-11 0.68035,-0.825 1.54441,-2.85 1.92015,-4.5 0.86928,-3.8173 5.37217,-18.3649 6.5001,-21 0.47085,-1.1 1.14042,-3.575 1.48794,-5.5 2.58466,-14.3171 12.73432,-34.9275 23.27807,-47.2695 6.58095,-7.7033 15.60606,-15.7305 17.68616,-15.7305 0.39141,0 1.90612,-0.8183 3.36602,-1.8184 7.25694,-4.9717 23.23691,-9.1811 34.85515,-9.1814 8.47889,-2e-4 15.18832,1.5886 22.53507,5.3364 14.29736,7.2936 22.77357,26.0375 18.45084,40.8013 -0.86349,2.9492 -1.84991,6.6797 -2.19206,8.2902 -0.60468,2.846 -5.2639,13.0757 -7.75827,17.0338 -0.68,1.079 -3.53929,5.4063 -6.35399,9.6161 -14.94377,22.3508 -20.40063,36.2333 -20.36491,51.8094 0.021,9.1572 2.06502,22.0711 5.00367,31.6126 2.01012,6.5267 11.61498,27.3723 13.1358,28.509 0.37452,0.2799 3.47222,6.1299 6.88379,13 5.86121,11.8031 14.69043,27.8973 15.90433,28.991 0.30522,0.275 5.05495,9.4267 10.55495,20.337 5.5,10.9104 10.31766,20.0371 10.7059,20.2818 0.38825,0.2446 3.53825,-0.8752 7,-2.4886 3.46176,-1.6133 8.0941,-3.7187 10.2941,-4.6785 2.2,-0.9599 7.66747,-3.4791 12.14994,-5.5984 4.48247,-2.1193 8.48318,-3.8533 8.89047,-3.8533 0.40729,0 2.58982,-0.885 4.85006,-1.9667 5.58479,-2.6728 27.17679,-11.0333 28.4949,-11.0333 0.58362,0 2.98567,-0.8569 5.33788,-1.9043 2.35221,-1.0473 6.18925,-2.6223 8.52675,-3.5 2.3375,-0.8776 5.9375,-2.2456 8,-3.04 2.0625,-0.7944 6.53803,-2.4208 9.94562,-3.6142 5.49392,-1.924 6.26549,-2.5249 6.81253,-5.3056 0.33929,-1.7247 1.00243,-4.2609 1.47364,-5.6359 0.47121,-1.375 2.72538,-8.575 5.00927,-16 2.28389,-7.425 4.84909,-15.3 5.70045,-17.5 0.85136,-2.2 1.86342,-4.9 2.24904,-6 0.38561,-1.1 2.20001,-5.0744 4.032,-8.8321 6.21146,-12.7407 16.37266,-17.5521 34.65865,-16.4113 11.72516,0.7315 18.52678,4.1988 23.1188,11.7855 2.7222,4.4975 3.25,6.3575 3.25,11.4536 0,3.3463 -0.64207,8.5412 -1.42683,11.5442 -0.78475,3.0031 -2.81627,10.8601 -4.51447,17.4601 -1.69821,6.6 -3.52478,13.0198 -4.05906,14.2661 -0.53427,1.2464 -3.02779,10.2464 -5.54115,20 -2.51336,9.7537 -5.93619,22.9089 -7.60628,29.2339 -10.55132,39.9601 -11.92522,46.8029 -12.56327,62.5722 -0.31316,7.7396 -0.25403,16.175 0.1314,18.7452 0.73548,4.9045 4.64254,10.6826 7.22342,10.6826 10.08943,0 40.8871,-32.8685 62.85624,-67.0827 2.75,-4.2828 7.20863,-11.0787 9.90807,-15.1021 2.69944,-4.0233 5.98181,-10.0152 7.29415,-13.3152 1.31234,-3.3 4.35506,-10.05 6.76159,-15 2.40653,-4.95 5.29391,-11.025 6.4164,-13.5 3.33254,-7.3479 8.47348,-16.1746 12.42129,-21.3266 2.03418,-2.6546 3.6985,-5.225 3.6985,-5.712 0,-1.6572 15.3422,-19.4266 25.93844,-30.0421 10.73373,-10.7532 17.01801,-15.3971 29.56156,-21.8449 8.63552,-4.4389 11.5058,-5.4305 23.5,-8.1184 9.83886,-2.2049 31.08432,-2.8985 33.40492,-1.0905 0.60229,0.4692 2.64893,1.1485 4.54808,1.5094 1.89914,0.361 6.27378,2.0305 9.72141,3.7101 5.90825,2.8783 11.57414,8.3626 17.52314,16.9614 l 1.69755,2.4536 0.0524,-2.5902 c 0.0796,-3.9322 5.71378,-14.4052 9.57195,-17.7927 4.24416,-3.7265 8.67431,-5.0738 19.10346,-5.8098 6.21932,-0.439 9.43424,-0.1609 13.71827,1.1866 6.86891,2.1606 13.11433,7.3264 14.71272,12.1696 1.52101,4.6087 0.5385,19.2566 -2.16897,32.3365 -2.56155,12.375 -3.47401,17.1082 -4.81955,25 -0.60952,3.575 -1.80197,9.3419 -2.64989,12.8154 -0.84791,3.4734 -1.95734,8.6484 -2.46541,11.5 -1.16516,6.5395 -4.14956,20.5151 -6.87286,32.1846 -1.15517,4.95 -2.80247,12.825 -3.66066,17.5 -0.8582,4.675 -2.22837,11.875 -3.04483,16 -2.46912,12.4748 -3.05395,17 -2.19701,17 2.06891,0 35.5862,-30.5328 56.43369,-51.4087 l 23.10846,-23.14 2.26417,-9.4756 c 1.2453,-5.2116 2.85097,-12.1757 3.56815,-15.4757 0.71719,-3.3 2.43273,-10.275 3.81232,-15.5 2.41014,-9.128 3.27929,-12.1386 8.94966,-31 4.99471,-16.6139 9.87685,-24.4602 17.75434,-28.5339 5.23081,-2.7049 19.01974,-4.0299 27.25495,-2.6188 16.1121,2.7606 21.4517,12.4942 17.0897,31.1527 -0.8358,3.575 -1.8874,8.075 -2.337,10 -1.7093,7.3196 -4.3746,16.6152 -5.5912,19.5 -1.7978,4.2628 -7.8582,32.4572 -7.1327,33.1827 0.332,0.332 0.9243,-0.2321 1.3163,-1.2535 1.0537,-2.7459 11.1709,-18.0633 18.3344,-27.7582 13.5569,-18.3476 32.2232,-38.3594 43.7204,-46.8719 8.8484,-6.5513 25.3382,-14.4586 35.2796,-16.9175 6.7721,-1.6749 10.3296,-1.989 17.5,-1.5448 14.5409,0.9008 24.4141,5.6102 32.9809,15.7316 8.8227,10.4236 11.7281,24.028 9.5445,44.691 -1.2601,11.9241 -5.3716,32.5133 -9.3338,46.7406 -1.3785,4.95 -3.4735,12.6 -4.6555,17 -1.9062,7.0956 -8.0657,26.6126 -10.0991,32 -0.4152,1.1 -1.7279,5.825 -2.917,10.5 -1.1892,4.675 -2.8557,10.796 -3.7033,13.6022 -1.6468,5.4524 -2.3603,24.9637 -1.0794,29.5213 1.0653,3.7905 5.5303,5.4306 10.4539,3.84 11.5645,-3.736 44.9474,-41.1645 62.7227,-70.3238 1.0526,-1.7268 3.5324,-5.6147 5.5106,-8.6397 3.6583,-5.5941 5.9556,-10.4414 12.5589,-26.5 7.6094,-18.5055 23.4331,-45.4404 34.3673,-58.5 7.4747,-8.9275 24.9356,-26.0728 30.2622,-29.7152 11.3096,-7.7335 25.8978,-14.7304 37.313,-17.8964 12.138,-3.3664 31.8627,-2.7294 43.574,1.4073 9.0797,3.2071 19.2752,11.626 21.9762,18.1467 0.6965,1.6817 1.5494,3.0557 1.8952,3.0533 0.3457,0 1.7536,-2.8063 3.1286,-6.2309 5.0729,-12.6347 14.944,-18.7648 30.2163,-18.7648 10.8612,0 21.3402,5.9316 24.3356,13.775 3.1744,8.3121 0.6326,31.6926 -5.6732,52.1834 -4.9629,16.1274 -7.8191,26.5911 -10.3839,38.0416 -0.1848,0.825 -1.0902,4.2 -2.012,7.5 -0.9217,3.3 -2.0273,7.575 -2.4568,9.5 -1.5515,6.9545 -3.3103,13.5403 -4.1393,15.5 -0.4653,1.1 -1.0414,3.125 -1.2802,4.5 -0.2388,1.375 -0.9536,4.75 -1.5884,7.5 -8.1465,35.2931 -7.6858,66.5 0.9819,66.5 2.8144,0 13.1048,-7.2731 20,-14.1359 3.575,-3.5581 9.8347,-10.9457 13.9103,-16.4167 4.0757,-5.471 8.5976,-11.5224 10.0488,-13.4474 1.4512,-1.925 5.7213,-8.225 9.489,-14 3.7677,-5.775 7.6832,-11.7192 8.7011,-13.2095 1.018,-1.4902 1.8508,-2.9672 1.8508,-3.2822 0,-0.315 1.9517,-3.5958 4.3371,-7.2905 8.9354,-13.8402 8.7164,-13.1715 9.7629,-29.8158 0.5271,-8.3841 1.3361,-18.0919 1.7977,-21.5729 2.0989,-15.8275 5.3584,-37.3142 7.2556,-47.8291 1.1412,-6.325 2.6812,-15.325 3.4223,-20 1.9975,-12.6011 4.0458,-23.6274 5.8517,-31.5 0.8832,-3.85 2.2173,-9.7 2.9647,-13 1.3326,-5.883 4.7462,-19.5761 6.6065,-26.5 0.5172,-1.925 1.9003,-7.325 3.0736,-12 3.7521,-14.9502 4.7008,-18.3115 7.8456,-27.796 1.6953,-5.1128 3.0823,-9.9565 3.0823,-10.7636 0,-0.8071 0.426,-2.2489 0.9467,-3.2039 0.5207,-0.9551 1.8471,-4.4365 2.9476,-7.7365 3.5679,-10.6985 7.6907,-21.9519 8.7929,-24 0.5919,-1.1 1.3834,-3.4314 1.7588,-5.1809 0.3754,-1.7494 1.3287,-3.717 2.1183,-4.3724 0.7897,-0.6553 1.4452,-1.9239 1.4568,-2.8191 0.012,-0.8952 1.1564,-4.7776 2.5439,-8.6276 1.3876,-3.85 3.2251,-8.9984 4.0834,-11.4409 3.6488,-10.3834 25.6735,-50.9522 32.9769,-60.7423 1.3061,-1.7508 2.3747,-3.4422 2.3747,-3.7587 0,-1.7574 19.5428,-21.1266 25,-24.778 14.2664,-9.5456 25.4974,-13.301 37.369,-12.4953 23.9072,1.6224 41.8459,17.7719 48.0032,43.2152 2.0779,8.5865 3.9107,28.9738 3.1886,35.4688 -0.6162,5.5427 -3.8313,26.149 -5.5438,35.5312 -2.7109,14.8529 -20.1434,69.9265 -23.0909,72.95 -0.5093,0.5225 -0.9261,1.5619 -0.9261,2.3096 0,0.7478 -1.7426,5.0453 -3.8724,9.55 -2.1298,4.5048 -5.5374,11.7904 -7.5723,16.1904 -5.8065,12.555 -24.7075,49.9452 -25.5281,50.5 -0.4067,0.275 -2.887,4.325 -5.5119,9 -2.6248,4.675 -7.1094,12.325 -9.9658,17 -2.8564,4.675 -5.5162,9.175 -5.9107,10 -0.7548,1.5786 -2.1099,3.8546 -4.7631,8 -0.8801,1.375 -3.5735,5.65 -5.9853,9.5 -2.4119,3.85 -10.8821,16.675 -18.8226,28.5 -7.9405,11.825 -16.6712,24.875 -19.4015,29 -2.7304,4.125 -7.0961,10.2 -9.7016,13.5 -7.9295,10.0429 -8.7893,12.4168 -9.5979,26.5 -0.3948,6.875 -0.7394,21.725 -0.7658,33 -0.052,22.3899 0.8185,27.6563 6.45,39 3.1399,6.325 4.6751,7.8441 11.0992,10.9828 14.1366,6.907 32.1644,-4.0491 56.1397,-34.1179 13.7652,-17.2636 15.8614,-20.1567 25.7101,-35.4849 14.51,-22.5828 18.317,-28.9439 24.1666,-40.38 5.6172,-10.9817 9.1449,-15.2465 14.6119,-17.6649 6.3978,-2.8302 18.1626,-3.316 20.2215,-0.8351 0.6847,0.825 1.8347,1.5 2.5555,1.5 1.918,0 8.3739,8.267 9.4871,12.1483 0.5266,1.8362 0.9574,6.2049 0.9574,9.7081 0,5.8582 -0.5713,7.5448 -7.1162,21.0066 -14.9279,30.7043 -38.314,66.5622 -57.8704,88.7324 -10.6794,12.1067 -28.1304,28.2565 -38.2865,35.4317 -7.3052,5.1611 -21.7147,12.6572 -26.9767,14.0338 -13.1718,3.4459 -16.2444,3.9093 -26.0128,3.9235 -12.2194,0.018 -21.1156,-1.9799 -31.7374,-7.1267 -4.8789,-2.3641 -8.6655,-5.3997 -15.1829,-12.1715 -4.7756,-4.962 -9.5006,-10.6338 -10.5,-12.604 -0.9994,-1.9702 -2.3373,-4.0322 -2.9732,-4.5822 -3.3061,-2.8596 -14.318,-35.1148 -12.8172,-37.5432 0.3253,-0.5262 0.3108,-0.9568 -0.032,-0.9568 -0.6835,0 -3.4356,3.1461 -10.8649,12.4202 -25.2905,31.5705 -43.1994,46.0149 -66.9269,53.98 -6.2639,2.1027 -9.6365,2.5998 -17.6383,2.5998 -8.6399,0 -10.9496,-0.3963 -18.2289,-3.1283 -7.3938,-2.7748 -9.1915,-3.9893 -15.9125,-10.75 -10.5894,-10.6517 -15.9267,-22.0714 -18.5159,-39.6163 l -0.5895,-3.9946 -2.1588,2.6358 c -1.1873,1.4497 -4.1838,5.2535 -6.6588,8.4528 -13.2499,17.1277 -33.9758,35.2584 -45.3337,39.6573 -20.2122,7.8281 -41.9699,7.7367 -58.6663,-0.2464 -8.6985,-4.1591 -11.6161,-6.3602 -17.5136,-13.2131 -6.7734,-7.8706 -9.9851,-13.7031 -13.2364,-24.0377 -1.5125,-4.8074 -3.0738,-8.6324 -3.4697,-8.5 -0.3958,0.1323 -6.2458,5.6563 -13,12.2756 -19.8923,19.4953 -37.0175,31.3539 -52.9112,36.6392 -8.4743,2.818 -10.6104,3.1233 -22.369,3.1964 -13.7593,0.086 -17.269,-0.6585 -27.2798,-5.7838 -9.0192,-4.6177 -21.2202,-17.1338 -21.2202,-21.7682 0,-0.653 -0.8718,-3.0168 -1.9374,-5.2529 -2.2618,-4.7465 -4.0638,-16.6813 -4.0597,-26.8881 0,-7.0194 2.7013,-25.7209 5.0037,-34.6777 0.6362,-2.475 1.3828,-5.85 1.6591,-7.5 0.2763,-1.65 1.1396,-4.418 1.9183,-6.1511 0.7788,-1.7331 1.416,-3.6299 1.416,-4.215 0,-1.0847 2.4504,-9.0145 3.904,-12.6339 0.4417,-1.1 3.8523,-11.45 7.579,-23 3.7268,-11.55 7.3927,-22.418 8.1465,-24.1511 0.7538,-1.7331 1.3705,-3.9382 1.3705,-4.9002 0,-0.962 0.7206,-5.3054 1.6013,-9.652 1.7089,-8.4334 1.2496,-14.5329 -1.164,-15.4591 -0.7988,-0.3065 -2.9532,-0.2758 -4.7876,0.068 -6.3104,1.1839 -21.6024,16.594 -31.3668,31.6092 -2.3195,3.5667 -8.9724,13.6849 -14.7842,22.4849 -5.8119,8.8 -10.8618,16.675 -11.2221,17.5 -0.3602,0.825 -2.0726,3.75 -3.8053,6.5 -1.7326,2.75 -4.5143,7.475 -6.1814,10.5 -1.6671,3.025 -5.7893,10.4163 -9.1605,16.425 -3.3712,6.0088 -6.1294,11.2082 -6.1294,11.5543 0,0.346 -1.3544,2.7648 -3.0098,5.375 -3.20847,5.0593 -26.23414,50.4341 -30.26744,59.6457 -3.55868,8.1276 -9.09854,16.3098 -13.72237,20.2676 -5.46216,4.6754 -10.96031,6.0746 -21.82928,5.5549 -7.96217,-0.3807 -9.40499,-0.7641 -14.02076,-3.726 -9.23228,-5.9244 -13.15036,-12.4316 -13.15036,-21.8403 0,-6.1022 2.30745,-22.9745 4.61649,-33.7562 0.82453,-3.85 2.13544,-10.7681 2.91314,-15.3735 0.7777,-4.6055 1.69426,-9.2566 2.03681,-10.3359 0.53673,-1.691 0.35348,-1.8181 -1.32574,-0.9194 -1.07171,0.5735 -3.81712,2.6039 -6.10091,4.512 -3.71708,3.1055 -7.56844,6.5154 -25.58063,22.648 -5.27897,4.7281 -11.90748,10.2943 -22.05916,18.5238 -5.92282,4.8014 -10.8087,9.0432 -14.91044,12.945 -1.15637,1.1 -4.23664,3.575 -6.84505,5.5 -2.6084,1.925 -4.96008,4.4 -5.22594,5.5 -0.26586,1.1 -1.87286,7.85 -3.57109,15 -8.11105,34.14954 -10.62478,43.82934 -16.10057,62.00004 -3.10882,10.3162 -13.62343,43.8406 -14.58427,46.5 -0.29807,0.825 -2.91662,8.25 -5.81899,16.5 -6.62883,18.8425 -8.25534,23.25 -9.96376,27 -0.75172,1.65 -3.21461,7.5 -5.4731,13 -5.34396,13.0139 -18.85525,38.9733 -25.2432,48.5 -18.70349,27.8935 -40.90241,48.0679 -60.10987,54.6278 -8.98329,3.0681 -29.16994,4.1535 -37.15372,1.9976 z m 25.1849,-55.6824 c 4.21976,-1.5842 11.78171,-9.4546 17.72032,-18.4431 6.22151,-9.4166 16.83706,-27.5155 19.06217,-32.5 0.85934,-1.925 1.96118,-4.175 2.44852,-5 0.48734,-0.825 2.12518,-4.65 3.63965,-8.5 1.51446,-3.85 3.58402,-8.8878 4.59901,-11.1951 1.01499,-2.3073 1.84821,-4.5573 1.85159,-5 0.003,-0.4427 0.59986,-1.9424 1.32549,-3.3328 4.80906,-9.2145 24.833,-75.0085 22.81206,-74.955 -2.55063,0.067 -38.70375,39.8613 -48.27891,53.1407 -18.4162,25.5409 -34.24389,57.5579 -37.49279,75.8422 -2.24058,12.6097 -1.32928,28.1454 1.76598,30.1065 1.87747,1.1895 7.16151,1.1077 10.54691,-0.1634 z M 303.9787,1034.3666 c 23.49054,-7.5043 41.99271,-28.5911 50.59872,-57.66724 2.04736,-6.9171 2.73542,-11.8332 3.16188,-22.5911 0.29979,-7.5625 0.23921,-13.75 -0.13463,-13.75 -1.43652,0 -16.52025,8.582 -24.60003,13.9963 -15.40201,10.321 -41.34107,31.3344 -48.5655,39.3431 -7.86987,8.72434 -14.43449,21.15854 -14.43449,27.34074 0,8.0709 4.06174,13.5353 11.47907,15.4433 4.33846,1.116 15.73503,0.044 22.49498,-2.1151 z M 730.62565,921.10826 c 2.80876,-2.3375 6.6298,-6.05 8.49121,-8.25 1.86141,-2.2 3.63786,-4.225 3.94766,-4.5 1.14762,-1.0187 12.85967,-18.7472 17.17649,-26 8.11382,-13.6322 21.80999,-39.6387 24.22562,-46 0.731,-1.925 2.96765,-7.55 4.97034,-12.5 11.01465,-27.2247 9.63978,-44.3936 -4.01176,-50.0976 -9.7924,-4.0915 -28.08669,8.1209 -40.59255,27.0976 -8.9364,13.5604 -26.82802,51.0638 -26.82802,56.2354 0,1.0256 -0.37886,2.2921 -0.84191,2.8146 -0.46305,0.5225 -1.60995,4.1 -2.54866,7.95 -0.93872,3.85 -2.117,8.575 -2.6184,10.5 -3.22546,12.3833 -1.81932,34.8459 2.67613,42.75 2.24395,3.9455 2.71917,4.25 6.63209,4.25 3.49101,0 5.09205,-0.7299 9.32176,-4.25 z m 559.98945,1.6526 c 6.0839,-4.0628 11.0008,-9.1597 18.2353,-18.9026 6.7974,-9.1542 8.9703,-12.3337 15.7187,-23 13.1417,-20.7714 28.9739,-55.8635 33.583,-74.437 4.1835,-16.8579 -0.6,-31.744 -10.8165,-33.6606 -11.3102,-2.1219 -28.6488,9.9725 -39.5643,27.5976 -8.6691,13.9981 -14.4515,25.0857 -18.7745,36 -2.2874,5.775 -4.5611,11.4 -5.0528,12.5 -0.4916,1.1 -1.5195,4.025 -2.2843,6.5 -7.4939,24.2524 -9.0224,32.9858 -8.4009,48 0.5123,12.3761 2.0666,17.7105 5.9538,20.4332 3.2381,2.268 6.9678,1.9309 11.4025,-1.0306 z m 297.1674,-216.6805 c 20.0907,-33.8968 47.7166,-92.4732 57.6427,-122.2221 1.4681,-4.4 3.0328,-8.9 3.4772,-10 3.4294,-8.4894 6.4761,-20.786 9.6626,-39 1.6743,-9.5697 1.8809,-30.9358 0.3418,-35.3507 -0.6038,-1.7321 -1.7584,-3.1493 -2.5657,-3.1493 -5.5825,0 -12.1739,8.1696 -19.7675,24.5 -2.0459,4.4 -4.811,10.3342 -6.1444,13.1871 -1.3335,2.8529 -2.4246,5.5223 -2.4246,5.9319 0,0.7158 -6.7208,17.6786 -9.4619,23.881 -1.3578,3.0723 -6.6651,19.6686 -13.1114,41 -1.9945,6.6 -4.6585,15.15 -5.9199,19 -1.2614,3.85 -2.8148,9.7 -3.4521,13 -0.6374,3.3 -1.5391,6.9 -2.0039,8 -1.2988,3.0734 -7.9026,31.0308 -10.9838,46.5 -3.4511,17.3262 -5.067,25.9564 -5.067,27.0621 0,2.5426 3.7976,-2.25 9.7779,-12.34 z m 652.2221,283.3386 c -1.375,-0.4737 -5.486,-0.9062 -9.1357,-0.961 -3.7499,-0.056 -7.8813,-0.7493 -9.5,-1.5935 -1.5753,-0.8216 -4.6643,-1.5109 -6.8643,-1.5318 -2.2,-0.021 -4.8735,-0.6987 -5.9411,-1.5062 -1.0676,-0.8075 -3.0123,-1.4682 -4.3214,-1.4682 -1.3092,0 -3.0553,-0.675 -3.8803,-1.5 -0.825,-0.825 -2.9947,-1.5 -4.8216,-1.5 -1.8943,0 -3.5481,-0.5902 -3.8487,-1.3737 -0.29,-0.7555 -2.1259,-1.6736 -4.0798,-2.0402 -1.954,-0.3666 -3.9024,-1.2536 -4.3299,-1.9711 -0.4274,-0.7175 -2.9147,-2.1106 -5.5272,-3.0956 -2.6125,-0.9851 -4.75,-2.1588 -4.75,-2.6083 0,-0.4495 -1.575,-1.5646 -3.5,-2.4781 -1.925,-0.9135 -3.5,-2.0292 -3.5,-2.4795 0,-0.4503 -0.9613,-1.1238 -2.1363,-1.4967 -1.8547,-0.5887 -6.3546,-3.7051 -12.3647,-8.5632 -2.5539,-2.0643 -9.9319,-9.6297 -12.9115,-13.2392 -1.4321,-1.7349 -4.3214,-5.1794 -6.4206,-7.6544 -6.3539,-7.4913 -11.1669,-14.2125 -11.1669,-15.5941 0,-0.7185 -0.5625,-1.6663 -1.25,-2.1062 -1.9682,-1.2591 -5.1543,-6.4266 -6.6586,-10.7997 -0.7569,-2.2 -2.212,-5.0731 -3.2337,-6.3848 -1.0217,-1.3117 -1.8717,-3.3367 -1.8889,-4.5 -0.017,-1.1633 -1.1381,-4.3652 -2.4909,-7.1152 -1.3528,-2.75 -2.4637,-6.2151 -2.4687,-7.7003 -0.01,-1.4851 -0.6312,-3.0601 -1.3915,-3.5 -0.7603,-0.4398 -1.5918,-2.5997 -1.8479,-4.7997 -0.256,-2.2 -1.1769,-6.025 -2.0465,-8.5 -1.9555,-5.5661 -3.7386,-13.4538 -4.9712,-21.9903 -1.513,-10.4788 -2.1138,-65.644 -0.7808,-71.6927 0.6282,-2.8507 1.1596,-7.4212 1.1807,-10.1567 0.021,-2.7355 0.6707,-6.1921 1.4433,-7.6812 0.7726,-1.4892 1.4047,-4.2757 1.4047,-6.1922 0,-1.9165 0.6306,-4.9026 1.4012,-6.6357 2.1756,-4.8926 3.5988,-9.7289 3.5988,-12.229 0,-1.2536 0.675,-2.9543 1.5,-3.7793 0.825,-0.825 1.5028,-2.3196 1.5062,-3.3214 0,-1.0018 0.6784,-3.1104 1.5,-4.6858 0.8216,-1.5753 1.4938,-3.6577 1.4938,-4.6275 0,-0.9698 0.6461,-2.2995 1.4358,-2.9548 0.7896,-0.6554 1.732,-2.5409 2.0942,-4.19 0.3623,-1.6492 1.2912,-3.2412 2.0643,-3.5379 0.7732,-0.2967 1.4057,-1.3974 1.4057,-2.446 0,-1.0486 0.4498,-2.688 0.9996,-3.643 0.5498,-0.9551 1.4386,-2.974 1.9753,-4.4865 0.5366,-1.5125 1.6618,-2.75 2.5004,-2.75 0.9189,0 1.5247,-0.9027 1.5247,-2.2721 0,-1.2497 1.2864,-3.8372 2.8586,-5.75 1.5723,-1.9128 3.1776,-4.4904 3.5674,-5.7279 0.3899,-1.2375 1.3047,-2.25 2.033,-2.25 0.7283,0 1.6066,-1.125 1.9517,-2.5 0.3451,-1.375 1.2421,-2.5 1.9934,-2.5 0.7512,0 2.0597,-1.0125 2.9077,-2.25 5.3673,-7.8331 22.3896,-22.4226 33.5439,-28.75 1.4544,-0.825 3.0042,-2.0625 3.444,-2.75 0.4399,-0.6875 1.9024,-1.25 3.25,-1.25 1.4278,0 2.4503,-0.5813 2.4503,-1.393 0,-1.4496 2.075,-2.607 4.6741,-2.607 0.8308,0 2.6546,-0.9 4.0531,-2 1.3984,-1.1 4.0018,-2 5.7852,-2 1.7835,0 3.8029,-0.675 4.4876,-1.5 0.6847,-0.825 2.2288,-1.5 3.4313,-1.5 1.2026,0 3.06,-0.6606 4.1276,-1.4682 1.0676,-0.8075 3.4332,-1.4825 5.2569,-1.5 1.8236,-0.018 4.2986,-0.5804 5.5,-1.251 1.2013,-0.6706 5.1092,-1.5313 8.6842,-1.9126 3.575,-0.3814 8.525,-1.1632 11,-1.7372 7.369,-1.7093 43.037,-1.4313 47.3458,0.369 1.9745,0.825 5.5169,1.5144 7.8721,1.5318 2.3552,0.017 5.1556,0.6925 6.2233,1.5 1.0676,0.8076 3.5651,1.4682 5.55,1.4682 1.9848,0 4.0363,0.3795 4.5588,0.8432 0.5225,0.4638 3.65,1.6559 6.95,2.6491 3.3,0.9933 6.8877,2.4138 7.9725,3.1568 1.0849,0.743 2.7768,1.3509 3.7598,1.3509 0.983,0 2.5579,0.9 3.4998,2 0.9418,1.1 2.7515,2 4.0216,2 1.27,0 2.5681,0.675 2.8847,1.5 0.3166,0.825 1.0392,1.5 1.6058,1.5 0.5666,0 4.1039,2.025 7.8607,4.5 3.7569,2.475 7.1232,4.5 7.4809,4.5 0.5334,0 5.0207,3.4871 8.7244,6.7798 4.5268,4.0246 21.6898,22.4998 21.6898,23.3482 0,1.0951 4.0316,6.3956 7.9691,10.4773 1.117,1.1579 2.0309,3.2472 2.0309,4.643 0,1.3958 0.675,2.7968 1.5,3.1134 0.825,0.3166 1.5,1.4941 1.5,2.6167 0,1.1227 0.9,2.8118 2,3.7537 1.1,0.9418 2,2.425 2,3.2959 0,0.8709 1.125,3.1083 2.5,4.972 1.375,1.8638 2.5,3.992 2.5,4.7295 0,0.7375 0.6489,2.3376 1.4419,3.5557 0.793,1.2182 1.6703,3.4914 1.9495,5.0515 0.2792,1.5602 0.9217,3.3602 1.4277,4 0.5061,0.6399 1.2441,2.9633 1.64,5.1633 0.396,2.2 1.0777,4.45 1.515,5 1.0084,1.2685 2.9717,9.43 3.9098,16.2531 0.3972,2.8891 1.2608,5.7916 1.9192,6.45 0.6858,0.6859 1.1969,3.9965 1.1969,7.7535 0,3.6062 0.4814,8.1287 1.0697,10.05 1.6575,5.4131 2.2917,39.9795 0.9447,51.4934 -0.6434,5.5 -1.5068,13.9495 -1.9186,18.7765 -0.4118,4.8271 -1.2768,9.3046 -1.9223,9.95 -0.6454,0.6455 -1.1735,3.0084 -1.1735,5.251 0,2.2427 -0.6085,4.9652 -1.3523,6.05 -0.7438,1.0849 -1.6567,3.9323 -2.0286,6.3275 -0.372,2.3953 -1.3384,5.6354 -2.1477,7.2004 -0.8092,1.5649 -1.4714,4.0068 -1.4714,5.4264 0,1.4195 -0.675,2.84 -1.5,3.1566 -0.9678,0.3714 -1.5,1.9188 -1.5,4.3616 0,2.4429 -0.5321,3.9903 -1.5,4.3617 -0.825,0.3166 -1.5,1.6666 -1.5,3 0,1.3334 -0.6181,2.6616 -1.3737,2.9515 -0.7556,0.2899 -1.6804,2.1617 -2.0552,4.1596 -0.3748,1.9978 -1.3316,3.8819 -2.1262,4.1868 -0.7947,0.3049 -1.4449,1.3456 -1.4449,2.3126 0,0.967 -0.9,2.9023 -2,4.3007 -1.1,1.3984 -2,2.9644 -2,3.4799 0,0.5155 -0.9,1.7518 -2,2.7472 -1.1,0.9955 -2,2.3342 -2,2.9749 0,0.6407 -1.35,2.677 -3,4.5251 -1.65,1.8482 -3,3.7292 -3,4.1802 0,0.4509 -0.5726,0.8198 -1.2726,0.8198 -0.6999,0 -2.1255,1.5839 -3.168,3.5197 -2.1859,4.0589 -6.042,8.1946 -13.3094,14.2745 -2.8231,2.3617 -6.4463,5.5117 -8.0516,7 -1.6053,1.4882 -6.2441,4.9067 -10.3085,7.5965 -4.0644,2.6899 -8.6091,5.7274 -10.0994,6.75 -1.4902,1.0227 -3.2902,1.8612 -4,1.8635 -0.7097,0 -3.5042,1.1273 -6.2099,2.5 -2.7058,1.3727 -5.9683,2.4958 -7.25,2.4958 -1.2818,0 -2.3306,0.444 -2.3306,0.9866 0,1.3819 -6.6576,4.0134 -10.1535,4.0134 -1.6635,0 -3.1557,0.6423 -3.4848,1.5 -0.398,1.0371 -2.0171,1.5 -5.2461,1.5 -2.5688,0 -5.5699,0.63 -6.6692,1.3999 -1.0992,0.77 -4.9119,1.6546 -8.4725,1.966 -12.4605,1.0894 -41.4966,1.5482 -43.9739,0.6948 z m 37.3621,-70.9462 c 0.881,-0.7312 3.295,-1.5576 5.3644,-1.8365 2.0693,-0.2788 4.6526,-1.1305 5.7405,-1.8925 1.0879,-0.762 3.0029,-1.3855 4.2555,-1.3855 1.2527,0 2.2775,-0.4596 2.2775,-1.0214 0,-0.5618 1.2375,-1.5466 2.75,-2.1884 6.5571,-2.7824 16.1029,-10.7856 23.0082,-19.2902 5.3282,-6.5621 14.2418,-22.411 14.2418,-25.3226 0,-0.5129 0.675,-1.4927 1.5,-2.1774 0.825,-0.6846 1.5,-2.4497 1.5,-3.9224 0,-1.4727 0.5625,-3.2396 1.25,-3.9264 1.5067,-1.5053 3.4581,-10.5904 4.7579,-22.1512 0.5257,-4.675 1.3944,-10.525 1.9304,-13 1.2291,-5.6751 1.2011,-36.5197 -0.041,-44.5 -0.5135,-3.3 -1.2091,-8.7 -1.5459,-12 -0.3368,-3.3 -1.2288,-6.8876 -1.9821,-7.9725 -0.7534,-1.0848 -1.3698,-3.8422 -1.3698,-6.1275 0,-2.4734 -0.607,-4.6589 -1.5,-5.4 -0.825,-0.6846 -1.5,-2.6959 -1.5,-4.4694 0,-1.7892 -0.8902,-4.251 -2,-5.5306 -1.1269,-1.2993 -2,-3.7413 -2,-5.5939 0,-1.8084 -0.435,-3.5569 -0.9666,-3.8855 -0.8379,-0.5178 -3.5527,-5.3622 -7.4323,-13.2628 -0.6056,-1.2332 -1.6269,-2.2457 -2.2695,-2.25 -0.6427,0 -2.0848,-1.4703 -3.2047,-3.2578 -3.1465,-5.0221 -16.496,-16.2324 -22.7548,-19.1085 -1.7203,-0.7906 -3.4344,-1.9333 -3.809,-2.5394 -0.3746,-0.6061 -1.6935,-1.1021 -2.931,-1.1021 -1.2374,0 -3.1233,-0.6606 -4.1909,-1.4682 -1.0677,-0.8075 -3.0662,-1.4852 -4.4412,-1.5061 -1.375,-0.021 -3.85,-0.808 -5.5,-1.7491 -2.5486,-1.4536 -5.3717,-1.6684 -18.7634,-1.4275 -11.2423,0.2022 -16.5484,0.693 -18.5,1.7111 -1.5051,0.7851 -4.3759,1.4303 -6.3796,1.4337 -2.3458,0 -3.8524,0.5518 -4.2311,1.5387 -0.3966,1.0335 -1.6994,1.4578 -4.0004,1.3028 -2.609,-0.1757 -4.2694,0.5229 -7.0536,2.9674 -2.0028,1.7585 -4.1058,3.1972 -4.6734,3.1972 -1.356,0 -7.861,4.8423 -10.3985,7.7406 -5.274,6.0241 -10.8475,11.2594 -11.9868,11.2594 -0.6947,0 -1.5223,1.2958 -1.8391,2.8795 -0.3167,1.5837 -1.2917,3.5953 -2.1666,4.4702 -0.8749,0.8749 -2.0982,3.0465 -2.7184,4.8257 -0.6203,1.7792 -2.1765,4.7804 -3.4584,6.6693 -1.2819,1.8889 -2.3307,4.2451 -2.3307,5.2359 0,0.9908 -0.45,2.0795 -1,2.4194 -0.55,0.34 -1,1.7487 -1,3.1305 0,1.3818 -0.675,3.1874 -1.5,4.0124 -0.825,0.825 -1.5,2.9427 -1.5,4.7061 0,1.7633 -0.6343,4.1117 -1.4097,5.2187 -0.7753,1.1069 -1.6571,5.1446 -1.9594,8.9725 -0.3023,3.8279 -1.031,13.0348 -1.6193,20.4598 -1.3158,16.6067 -0.3994,45.6494 1.6212,51.3762 0.7899,2.239 1.3363,6.0009 1.2142,8.3599 -0.1221,2.3589 0.3124,4.8233 0.9655,5.4764 0.6532,0.6532 1.1875,3.0744 1.1875,5.3806 0,2.6333 0.511,4.3891 1.3738,4.7201 0.7555,0.2899 1.6759,2.1381 2.0453,4.107 0.3693,1.9689 1.1012,3.5798 1.6262,3.5798 0.5251,0 0.969,1.0125 0.9865,2.25 0.017,1.2375 0.6925,3.1236 1.5,4.1912 0.8075,1.0676 1.4682,2.7551 1.4682,3.75 0,0.9949 0.3742,1.8088 0.8316,1.8088 1.0041,0 7.1684,9.3342 7.1684,10.8546 0,0.5913 0.9,1.5567 2,2.1454 1.1,0.5887 2,1.4891 2,2.0007 0,0.5117 3.1206,4.051 6.9346,7.865 5.5929,5.5929 9.1008,8.0181 18.1304,12.5345 6.1577,3.0799 12.3971,5.5998 13.8654,5.5998 1.4683,0 3.0971,0.4154 3.6196,0.9231 1.5964,1.5511 6.2755,1.8967 23.0801,1.705 11.7215,-0.1338 16.5679,-0.5474 17.732,-1.5136 z m -502.6303,-118.3645 0.2317,-185.25 84.7683,0.071 c 84.6774,0.071 95.1803,0.4511 98.9489,3.5787 0.7522,0.6243 1.6389,0.8638 1.9705,0.5322 0.3316,-0.3315 2.1757,0.054 4.098,0.8575 1.9223,0.8032 4.0607,1.4604 4.7521,1.4604 2.3998,0 19.3991,8.6948 22.5184,11.5178 0.9008,0.8152 2.0058,1.4822 2.4556,1.4822 2.767,0 13.8619,9.0595 21.5247,17.576 5.5086,6.1222 16,22.9714 16,25.6958 0,0.7822 0.9,2.4599 2,3.7282 1.1,1.2683 2.0143,3.2496 2.0318,4.403 0.017,1.1533 0.6925,2.9705 1.5,4.0381 0.8075,1.0676 1.4682,3.4036 1.4682,5.191 0,1.7874 0.3842,3.4873 0.8537,3.7775 1.3893,0.8586 3.2943,17.5623 3.6882,32.3387 0.3518,13.1993 -0.7403,23.8875 -3.704,36.2517 -0.5933,2.475 -1.4752,6.489 -1.9598,8.92 -0.4847,2.4311 -1.7068,5.8195 -2.7159,7.5298 -1.0091,1.7103 -2.142,4.3337 -2.5175,5.8299 -0.3755,1.4961 -1.1242,2.7203 -1.6637,2.7203 -0.5395,0 -0.981,0.7411 -0.981,1.647 0,0.9058 -1.575,3.5691 -3.5,5.9183 -1.925,2.3492 -3.5,4.7135 -3.5,5.2541 0,0.5406 -4.3875,5.4479 -9.75,10.9052 -8.8855,9.0425 -17.451,15.6386 -24.1839,18.6235 -1.4113,0.6256 -3.4618,1.95 -4.5566,2.9431 -1.9184,1.7402 -1.9274,1.9154 -0.25,4.8382 0.9573,1.668 1.7405,4.0129 1.7405,5.2111 0,1.1981 0.9,2.7404 2,3.4274 1.1,0.687 2,2.0901 2,3.1181 0,1.028 0.675,2.4293 1.5,3.114 0.825,0.6847 1.5,2.3148 1.5,3.6224 0,1.3077 0.3438,2.3776 0.764,2.3776 0.4201,0 1.8722,2.3625 3.2268,5.25 1.3546,2.8875 3.0359,5.8446 3.7361,6.5714 0.7002,0.7268 1.2731,2.3985 1.2731,3.7148 0,1.37 0.8553,2.8511 2,3.4638 1.3169,0.7047 2,2.0938 2,4.0665 0,1.6843 0.6301,3.238 1.4389,3.5484 0.7914,0.3037 1.726,1.8594 2.077,3.4571 0.3509,1.5978 1.0723,3.1735 1.6032,3.5016 0.5309,0.328 1.6701,2.3582 2.5316,4.5114 0.8616,2.1532 1.9319,3.915 2.3785,3.915 0.4465,0 1.1016,1.3189 1.4557,2.9309 0.354,1.612 1.2898,3.4671 2.0794,4.1224 0.7897,0.6554 1.4357,1.9365 1.4357,2.8469 0,0.9104 0.9,2.4259 2,3.3677 1.1474,0.9825 2,2.95 2,4.6153 0,1.5965 0.6171,3.1396 1.3714,3.429 0.7542,0.2894 1.6907,1.8001 2.0811,3.357 0.3904,1.5569 1.5733,3.6358 2.6287,4.6197 1.0553,0.984 1.9188,2.6715 1.9188,3.75 0,1.0786 0.3402,1.9611 0.7559,1.9611 0.7655,0 4.4642,7.6196 5.7037,11.75 0.3714,1.2375 1.0745,2.25 1.5625,2.25 0.488,0 1.1828,1.6875 1.544,3.75 0.3612,2.0625 1.2011,4.2 1.8664,4.75 0.6654,0.55 2.4161,3.5615 3.8906,6.6922 1.4744,3.1307 3.1333,5.9718 3.6863,6.3135 0.8349,0.5161 4.9906,8.1619 4.9906,9.1821 0,0.1717 -18.5903,0.3122 -41.3119,0.3122 h -41.312 l -1.938,-2.75 c -1.0659,-1.5125 -3.6757,-6.35 -5.7994,-10.75 -7.7228,-16.0003 -14.9383,-30.034 -16.196,-31.5 -0.7078,-0.825 -1.6217,-2.85 -2.0309,-4.5 -0.4092,-1.65 -1.5666,-4.35 -2.5719,-6 -1.0053,-1.65 -3.0143,-5.5875 -4.4645,-8.75 -1.4502,-3.1625 -3.028,-5.75 -3.5061,-5.75 -0.4781,0 -0.8693,-0.5116 -0.8693,-1.1369 0,-1.1134 -6.4953,-15.4319 -9.691,-21.3631 -0.889,-1.65 -2.8972,-5.354 -4.4627,-8.2311 -1.5654,-2.8771 -2.8463,-6.0915 -2.8463,-7.143 0,-1.0516 -0.675,-2.171 -1.5,-2.4876 -0.825,-0.3165 -1.5,-1.6596 -1.5,-2.9845 0,-1.3249 -0.675,-2.9691 -1.5,-3.6538 -0.825,-0.6847 -1.5,-1.9998 -1.5,-2.9225 0,-0.9226 -0.4409,-2.1184 -0.9798,-2.6573 -0.5388,-0.5389 -2.2263,-3.4414 -3.75,-6.45 l -2.7702,-5.4702 -28.25,-0.261 c -15.5375,-0.1436 -28.2801,0.082 -28.3169,0.5 -0.037,0.4185 -0.1214,30.7985 -0.1878,67.511 l -0.1207,66.75 h -37.5623 l -37.5623,-10e-5 z m 153.9817,-15.5423 c 3.9675,-1.2094 9.6142,-3.3356 12.5482,-4.7248 7.0924,-3.3581 17.9435,-14.4888 19.7386,-20.2472 0.7311,-2.3453 1.9388,-4.7702 2.6838,-5.3885 0.8872,-0.7362 1.149,-2.2199 0.7588,-4.2998 -0.4192,-2.2345 -0.1285,-3.5633 0.9807,-4.4839 1.2575,-1.0436 1.5764,-3.4973 1.5764,-12.1269 0,-5.9502 -0.3974,-11.0641 -0.8831,-11.3643 -0.4857,-0.3002 -1.202,-3.1393 -1.5917,-6.309 -0.3898,-3.1698 -1.2892,-6.4383 -1.9986,-7.2633 -0.7095,-0.825 -1.6264,-2.6002 -2.0375,-3.9449 -0.6901,-2.257 -3.3632,-5.6515 -7.7635,-9.8586 -0.9759,-0.933 -2.9245,-2.8137 -4.3303,-4.1792 -3.723,-3.6163 -7.6211,-6.0031 -9.8165,-6.0107 -1.0567,0 -2.6317,-0.6219 -3.5,-1.3741 -0.8683,-0.7521 -5.4038,-2.1755 -10.0788,-3.1632 -6.9048,-1.4587 -14.5847,-1.864 -40.9228,-2.1597 -17.8325,-0.2002 -32.767,-0.014 -33.1878,0.4132 -0.5583,0.5673 -1.4699,103.2627 -0.9635,108.5517 0.041,0.426 16.1616,0.63 35.8241,0.4534 33.4591,-0.3005 36.2123,-0.462 42.9635,-2.5202 z m 550.2865,15.2802 v -185.5122 l 37.25,0.2622 37.25,0.2621 0.1902,185.25 0.1901,185.25 h -37.4401 -37.4402 z M 578.20756,685.88296 c -10.29269,-3.2132 -17.24108,-8.8406 -21.32008,-17.2667 -2.7751,-5.7326 -3.5672,-16.3091 -1.83606,-24.516 4.32299,-20.4942 20.13224,-32.742 42.263,-32.742 8.00256,0 20.69022,3.1489 20.69022,5.135 0,0.4758 0.51218,0.865 1.13817,0.865 2.27612,0 10.41867,8.5623 12.62967,13.2806 2.84485,6.0711 3.90351,17.3533 2.32294,24.7558 -1.78015,8.3372 -4.83716,13.9466 -10.73385,19.6957 -9.28031,9.0481 -17.67102,12.2011 -32.35693,12.1587 -4.675,-0.014 -10.43368,-0.6282 -12.79708,-1.3661 z"
       id="path1" /></g></svg>
